<svg width="100" height="100" viewBox="0 0 100 100" fill="none" xmlns="http://www.w3.org/2000/svg">
<g clip-path="url(#clip0_124_177)">
<path d="M50 100C40.1109 100 30.444 97.0676 22.2215 91.5735C13.9991 86.0794 7.59043 78.2705 3.80604 69.1342C0.0216641 59.9979 -0.968502 49.9445 0.960758 40.2455C2.89002 30.5464 7.65206 21.6373 14.6447 14.6447C21.6373 7.65206 30.5464 2.89002 40.2455 0.960758C49.9445 -0.968502 59.9979 0.0216641 69.1342 3.80604C78.2705 7.59043 86.0794 13.9991 91.5735 22.2215C97.0676 30.444 100 40.1109 100 50C99.9841 63.256 94.7112 75.9644 85.3378 85.3378C75.9644 94.7112 63.256 99.9841 50 100ZM50 4.00002C40.9021 4.00002 32.0084 6.69787 24.4438 11.7524C16.8791 16.807 10.9832 23.9912 7.50156 32.3966C4.01993 40.802 3.10898 50.051 4.8839 58.9742C6.65882 67.8973 11.0399 76.0937 17.4731 82.5269C23.9063 88.9601 32.1027 93.3412 41.0259 95.1161C49.949 96.891 59.198 95.9801 67.6034 92.4985C76.0088 89.0168 83.1931 83.1209 88.2476 75.5562C93.3021 67.9916 96 59.0979 96 50C95.9841 37.8049 91.1326 26.1139 82.5094 17.4906C73.8861 8.86741 62.1951 4.0159 50 4.00002Z" fill="#D9D9D9"/>
<path d="M26 34H20V40H26V34Z" fill="#D9D9D9"/>
<path d="M32 40H26V46H32V40Z" fill="#D9D9D9"/>
<path d="M38 46H32V52H38V46Z" fill="#D9D9D9"/>
<path d="M38 52H32V58H38V52Z" fill="#D9D9D9"/>
<path d="M38 58H32V64H38V58Z" fill="#D9D9D9"/>
<path d="M38 64H32V70H38V64Z" fill="#D9D9D9"/>
<path d="M44 40H38V46H44V40Z" fill="#D9D9D9"/>
<path d="M66 34H60V40H66V34Z" fill="#D9D9D9"/>
<path d="M60 40H54V46H60V40Z" fill="#D9D9D9"/>
<path d="M60 46H54V52H60V46Z" fill="#D9D9D9"/>
<path d="M60 52H54V58H60V52Z" fill="#D9D9D9"/>
<path d="M66 52H60V58H66V52Z" fill="#D9D9D9"/>
<path d="M66 46H72V40H66V46Z" fill="#D9D9D9"/>
<path d="M66 52H72V46H66V52Z" fill="#D9D9D9"/>
<path d="M66 58H72V52H66V58Z" fill="#D9D9D9"/>
<path d="M78 58H72V64H78V58Z" fill="#D9D9D9"/>
<path d="M82 64H76V70H82V64Z" fill="#D9D9D9"/>
<path d="M54 58H48V64H54V58Z" fill="#D9D9D9"/>
<path d="M50 64H44V70H50V64Z" fill="#D9D9D9"/>
<path d="M50 34H44V40H50V34Z" fill="#D9D9D9"/>
</g>
<defs>
<clipPath id="clip0_124_177">
<rect width="100" height="100" fill="white"/>
</clipPath>
</defs>
</svg>
