<svg width="373" height="117" viewBox="0 0 373 117" fill="none" xmlns="http://www.w3.org/2000/svg">
<g clip-path="url(#clip0_124_204)">
<path d="M286 88.05H302C302 96.05 292.15 116.05 264 116.05C263.91 110.05 264 104.05 264 98.3C278 104 288 94 286 88.05ZM372 98.25C358 104 348 94 350 88.05H334C334 96.05 343.85 116.05 372 116.05C372.09 110 372 104 372 98.25ZM136 10V24C173.82 24 178 12 178 0H166C172 20 142 12 136 10ZM264 32C264 27.67 263.89 24 263.89 16C276 18 290 14 284.12 0H296C296 2.05 296.17 4.34 296.26 6.71C303.6 3.91 313.45 3.08 316 12C319.47 24.13 313.73 37.57 303.55 48H334.81C323.9 34.05 319.87 15 320 2H372V16C372.05 25.31 363.58 38.24 350.44 43.56C356.44 48.65 363.84 52 372 52V66C363.746 66.1312 355.607 64.0601 348.42 60H287.26C280.087 63.8031 272.118 65.8588 264 66V46C286 50 316 34 306 20C303.05 15.87 297.32 19.53 292.79 22.76C288.83 28.13 280.64 32 264 32ZM334.51 16C335.535 21.7914 337.679 27.3277 340.82 32.3C348.82 32.21 359.56 24.9 356 16H334.51ZM166 28C172 48 142 42 136 38V56C151.05 56 160.72 54.58 166.92 51.86C170.68 73.15 168.92 104.23 136 96V116C175.42 116 176 116 176 43.2C177.77 39.06 178 33.96 178 27.97L166 28ZM162 56H154C156 68 142 66 136 62V74C148 74 162 70 162 56ZM164 72H156C158 84 142 82 136 78V94C148 94 164 86 164 72ZM71.81 12H120V26H77.92C77.7665 30.3595 77.312 34.7031 76.56 39C94.9 30.33 114 33.91 114 46C114 58.58 102.87 75.92 88.14 90.2C98.14 95.39 109.62 98.69 120 98V116C104.76 116 89.31 109 77.15 99.7C64.69 109.36 51.12 116 40 116V96C46.74 97.22 56 94.11 65.4 88.8C61.3744 84.4095 58.0944 79.3898 55.69 73.94C50.9077 76.6487 45.4959 78.049 40 78V58C67.52 61.44 68.41 36.79 65.54 26H43.88C43.4476 35.9777 40.7531 45.7265 36 54.51V116H20V72C14.0701 75.879 7.14587 77.9626 0.06 78V58C27.44 59.71 34.28 36.46 30.64 26H0V12H63.14C63 8.21 57.25 5.38 48 10V0C65.62 0 70.82 4.66 71.81 12ZM72 54.51C70.0291 59.2004 67.2955 63.5322 63.91 67.33C65.66 72.22 70 77.41 75.74 82.11C93 69.53 107.31 52 102 44C98.29 38.43 88.47 40.45 72 54.51ZM250 66V116H236V110H194V116H180V44H182C252 42 250 50 250 66ZM194 55.3V75.69C199.266 74.8695 204.153 72.4504 207.998 68.7604C211.844 65.0704 214.463 60.2877 215.5 55.06C210 54.83 202.92 54.88 194 55.3ZM194 94.72H215C213.615 89.9697 210.904 85.7131 207.184 82.4503C203.464 79.1874 198.89 77.0538 194 76.3V94.72ZM236 94.72V76.72C231.524 77.7724 227.408 79.9929 224.07 83.155C220.732 86.317 218.293 90.3077 217 94.72H236ZM236 66C236 61.61 238.14 56.14 216.5 55.1C217.478 59.9784 219.835 64.4738 223.291 68.0525C226.748 71.6313 231.159 74.1432 236 75.29V66ZM190.78 38.57H205.24V26H223.61V38.57H238.08V26H250V12H238.08V0H223.61V12H205.24V0H190.78V12H180V26H190.78V38.57ZM372 82V68H264V82H310V116H326V82H372ZM87 68C88.3845 68 89.7378 67.5895 90.889 66.8203C92.0401 66.0511 92.9373 64.9579 93.4672 63.6788C93.997 62.3997 94.1356 60.9922 93.8655 59.6344C93.5954 58.2765 92.9287 57.0292 91.9497 56.0503C90.9708 55.0713 89.7235 54.4046 88.3656 54.1345C87.0078 53.8644 85.6003 54.003 84.3212 54.5328C83.0421 55.0627 81.9489 55.9599 81.1797 57.111C80.4105 58.2622 80 59.6155 80 61C80 62.8565 80.7375 64.637 82.0503 65.9497C83.363 67.2625 85.1435 68 87 68ZM166 33C166 31.6155 165.589 30.2622 164.82 29.111C164.051 27.9599 162.958 27.0627 161.679 26.5328C160.4 26.003 158.992 25.8644 157.634 26.1345C156.277 26.4046 155.029 27.0713 154.05 28.0503C153.071 29.0292 152.405 30.2765 152.135 31.6344C151.864 32.9922 152.003 34.3997 152.533 35.6788C153.063 36.9579 153.96 38.0511 155.111 38.8203C156.262 39.5895 157.616 40 159 40C160.857 40 162.637 39.2625 163.95 37.9497C165.263 36.637 166 34.8565 166 33ZM271 46C272.384 46 273.738 45.5895 274.889 44.8203C276.04 44.0511 276.937 42.9579 277.467 41.6788C277.997 40.3997 278.136 38.9922 277.866 37.6344C277.595 36.2765 276.929 35.0292 275.95 34.0503C274.971 33.0713 273.724 32.4046 272.366 32.1345C271.008 31.8644 269.6 32.003 268.321 32.5328C267.042 33.0627 265.949 33.9599 265.18 35.111C264.411 36.2622 264 37.6155 264 39C264 40.8565 264.738 42.637 266.05 43.9497C267.363 45.2625 269.143 46 271 46Z" fill="#D9D9D9"/>
</g>
<defs>
<clipPath id="clip0_124_204">
<rect width="372.04" height="116.03" fill="white"/>
</clipPath>
</defs>
</svg>
