<svg width="388" height="37" viewBox="0 0 388 37" fill="none" xmlns="http://www.w3.org/2000/svg">
<g clip-path="url(#clip0_327_1633)">
<path d="M88.7515 3.07617V36.3591C88.8775 36.375 89.0051 36.375 89.1311 36.3591C91.323 35.7253 93.5221 35.1129 95.6997 34.4293C95.837 34.3403 95.9513 34.2205 96.0334 34.0795C96.1156 33.9384 96.1632 33.7802 96.1725 33.6175C96.2083 30.9971 96.1725 28.3766 96.1725 25.7846V24.8375H103.866V36.3662C104.124 36.3662 104.238 36.3662 104.346 36.3662C106.402 36.0458 108.457 35.7111 110.52 35.412C111.122 35.3266 111.043 34.9349 111.043 34.5433C111.043 30.4701 111.101 26.4041 111.108 22.331C111.108 16.207 111.108 10.0855 111.108 3.96628V3.07617H88.7515ZM103.794 21.2629H96.2513V15.5662H103.794V21.2629ZM103.794 11.8847H96.2441V6.64372H103.808L103.794 11.8847Z" fill="#141414"/>
<path d="M388 16.0575V22.3666C388 24.0044 388 24.0115 386.367 24.2536C384.733 24.4957 383.265 24.688 381.711 24.8945C381.519 24.8979 381.327 24.886 381.137 24.8589V19.3188H346.468V24.0542L339.799 24.923V16.086H343.223C343.044 11.1014 342.872 6.28054 342.693 1.40987C344.842 1.21761 346.919 1.07519 348.982 0.847327C350.479 0.683547 351.976 0.434316 353.466 0.185086C353.665 0.120541 353.88 0.126426 354.074 0.201738C354.269 0.27705 354.431 0.417128 354.533 0.598096C355.114 1.46684 355.773 2.28574 356.546 3.31115L350.343 4.27246V6.08828H355.422V8.83693H350.572V10.8593H355.436V13.5865H350.758V16.0148H377.169V13.6293H372.964V10.9162H377.377V8.90814H372.986V6.14525H377.499C377.57 5.43316 377.628 4.86349 377.692 4.14429H372.348V0.904293H385.199C385.027 5.95299 384.855 10.9518 384.683 16.0575H388Z" fill="#141414"/>
<path d="M278.826 32.7559L276.104 36.4944C272.247 35.6557 268.569 34.1492 265.237 32.0438C263.805 31.0968 262.766 31.0042 261.226 31.8801C257.519 33.9793 253.497 35.4724 249.314 36.3021C248.975 36.3432 248.64 36.4098 248.311 36.5015C248.112 36.5815 247.891 36.5874 247.688 36.5181C247.486 36.4487 247.315 36.3088 247.208 36.1241C246.413 35.1272 245.603 34.1374 244.679 32.998C249.867 32.1043 254.891 30.4458 259.586 28.0775C256.61 25.734 253.988 22.9787 251.799 19.8956C252.795 19.5966 253.719 19.3046 254.665 19.0269C256.183 18.5783 256.097 18.6566 257.215 19.8529C259.013 21.7969 260.925 23.6341 262.816 25.4784C262.935 25.5743 263.075 25.64 263.225 25.6698C263.375 25.6995 263.529 25.6925 263.676 25.6493C266.728 23.8981 269.182 21.2792 270.724 18.1297H250.954V14.4339H259.371V9.44934H250.395V5.77497H259.378V0.391602H266.785V5.73225H277.888C277.601 6.91431 277.365 7.98244 277.05 9.02209C276.999 9.19299 276.555 9.3354 276.29 9.3354C273.482 9.3354 270.674 9.3354 267.866 9.3354H266.864V14.3912H276.04C276.133 16.3637 276.247 18.1653 275.073 19.8743C272.873 23.0644 270.467 26.0267 267.157 28.3054C270.764 30.4369 274.71 31.9419 278.826 32.7559Z" fill="#141414"/>
<path d="M149.259 8.6162V14.0494H165.541C165.226 15.2172 164.975 16.2569 164.638 17.268C164.561 17.3929 164.457 17.4988 164.333 17.5777C164.209 17.6567 164.068 17.7066 163.922 17.7238C161.63 17.7238 159.338 17.6882 157.053 17.6882C146.48 17.6882 135.909 17.6882 125.341 17.6882H124.181V14.085H140.541V8.63044H120.234V4.98456H140.577V0.391602H149.173V4.98456H169.08C168.764 6.25207 168.478 7.39853 168.177 8.62332L149.259 8.6162Z" fill="#141414"/>
<path d="M67.2764 6.8147V32.756H86.5668V6.8147H67.2764ZM79.7618 28.9962H74.3106V20.8428H79.7618V28.9962ZM79.7618 17.3322H74.3178V10.4392H79.7618V17.3322Z" fill="#141414"/>
<path d="M331.01 9.00077C330.645 10.1828 330.358 11.2438 329.971 12.2764C329.9 12.4686 329.427 12.6039 329.14 12.6039C325.129 12.6039 321.118 12.6039 317.106 12.6039C314.442 12.6039 311.777 12.6039 309.119 12.6039C308.817 12.569 308.511 12.6284 308.244 12.7739C307.977 12.9193 307.763 13.1436 307.629 13.4157C303.045 21.0493 298.425 28.6543 293.84 36.2879C293.489 36.8647 293.196 36.9573 292.623 36.6653C290.689 35.6969 288.74 34.7498 286.742 33.7671C290.997 26.7246 295.209 19.7462 299.499 12.6538H286.892V9.02925H288.139C292.436 9.02925 296.677 9.02925 300.946 9.02925C301.181 9.05062 301.417 8.99908 301.621 8.88175C301.825 8.76441 301.987 8.58706 302.085 8.37413C303.64 5.75366 305.244 3.16878 306.784 0.541185C307.121 -0.0213634 307.4 -0.135297 308.002 0.1709C309.929 1.15358 311.892 2.07929 313.897 3.05485L310.316 8.98653L331.01 9.00077Z" fill="#141414"/>
<path d="M196.271 23.8977L192.689 27.5293C191.636 26.4185 190.634 25.3432 189.466 24.0971V35.0062L182.26 36.1384V27.2659L177.246 34.1873C176.828 32.9855 176.33 31.8127 175.756 30.6767C174.803 29.0532 175.183 28.0278 176.536 26.746C179.466 24.0587 181.424 20.488 182.109 16.5846H175.283V12.9885H182.21V8.00392C181.228 8.06089 180.297 8.13922 179.344 8.17482C178.459 8.2211 177.572 8.2211 176.687 8.17482C176.544 8.13435 176.413 8.05815 176.308 7.95347C176.203 7.84878 176.126 7.71908 176.085 7.57667C175.975 6.76259 175.944 5.93995 175.992 5.11997C175.992 4.92059 176.472 4.62151 176.751 4.60015C180.059 4.39658 183.331 3.80866 186.5 2.84842C188.391 2.2289 190.232 1.45985 192.174 0.712158L194.122 5.40481L189.53 6.79337V12.9387H194.545C194.194 14.1207 193.893 15.2031 193.527 16.2641C193.477 16.4137 193.119 16.5276 192.904 16.5418C192.052 16.5418 191.207 16.5418 190.254 16.5418C191.393 19.7747 193.599 22.0178 196.271 23.8977Z" fill="#141414"/>
<path d="M248.92 16.8694C248.92 18.0443 248.92 19.1481 248.92 20.2518C248.893 20.3757 248.838 20.4918 248.759 20.5907C248.679 20.6896 248.577 20.7687 248.461 20.8215C247.186 21.2986 245.904 21.7899 244.586 22.1602C244.457 22.1773 244.332 22.2205 244.22 22.2871C244.108 22.3538 244.01 22.4425 243.934 22.5478C243.858 22.6531 243.804 22.7729 243.775 22.8997C243.747 23.0265 243.745 23.1577 243.77 23.2853C243.77 27.1519 243.77 31.0257 243.77 34.9849L236.384 36.523V23.6413L230.46 24.8732L229.221 20.6506L236.327 19.5326V11.8207H229.88V8.20331H236.327V0.370361H243.719V8.20331H249.02C248.662 9.40674 248.354 10.5105 247.974 11.5928C247.931 11.7281 247.552 11.8136 247.323 11.8207C246.184 11.8207 245.037 11.8207 243.784 11.8207V18.4431L248.92 16.8694Z" fill="#141414"/>
<path d="M223.262 21.7115C222.961 22.9149 222.71 24.0329 222.388 25.1295C222.345 25.2791 221.972 25.3716 221.736 25.4144C220.053 25.7134 218.369 25.9911 216.636 26.2831V36.4588H209.251V27.1447L196.55 29.1314C196.414 28.0135 196.292 26.9952 196.156 25.9484C196.092 25.4357 196.407 25.3431 196.823 25.2862L208.928 23.5558C209.031 23.5346 209.131 23.5061 209.229 23.4704V0.384521H216.614V22.6443L223.262 21.7115Z" fill="#141414"/>
<path d="M27.1557 8.25317V13.9499H21.4252V8.25317H18.4668V28.5975H30.2287V22.9008H35.9592V28.6473H38.8818V8.25317H27.1557ZM21.4897 17.0902H27.0984V19.7605H21.4897V17.0902ZM27.1486 25.5925H21.4897V22.8723H27.1486V25.5925ZM35.8876 19.7534H30.2502V17.0902H35.8876V19.7534ZM35.8876 13.9855H30.2717V11.2439H35.9019L35.8876 13.9855Z" fill="#141414"/>
<path d="M383.838 28.6685C383.495 29.7153 383.222 30.6624 382.836 31.5667C382.757 31.759 382.277 31.8587 381.983 31.8587C377.599 31.8587 373.215 31.8587 368.832 31.8587H367.75V36.1312L360.035 37.0284V31.8658H344.706V28.7326H359.999V26.1406L369.555 24.7948V24.5883H349.283V21.7043H378.151C378.151 22.5802 378.187 23.4561 378.151 24.3177C378.151 24.4815 377.771 24.6809 377.528 24.7592C374.483 25.8273 371.432 26.8955 368.395 27.9422C368.113 28.0695 367.842 28.2195 367.585 28.3908L367.707 28.6685H383.838Z" fill="#141414"/>
<path d="M160.727 32.1507C160.254 33.5749 159.846 34.9136 159.366 36.2025C159.287 36.4019 158.85 36.5799 158.578 36.587C156.315 36.587 154.051 36.587 151.787 36.587H131.301V20.8784H139.897V32.1507H160.727Z" fill="#141414"/>
<path d="M57.52 19.9385V22.4806C53.9722 22.4074 50.502 23.518 47.6635 25.6352C46.1222 26.8505 44.7129 28.2228 43.4587 29.7297C40.2228 33.6015 35.5795 36.0461 30.5393 36.5316C25.4992 37.017 20.4702 35.5039 16.5467 32.3217C15.0625 30.9986 13.6764 29.5707 12.3993 28.0491C9.79295 25.1498 6.24218 23.2563 2.37082 22.7014C1.6545 22.5874 0.895209 22.5447 0.100098 22.4593V19.9385C1.35365 20.088 2.6287 20.1521 3.86076 20.4156C8.42651 21.3963 12.4905 23.9642 15.3218 27.6575C16.6767 29.4312 18.3835 30.9095 20.3365 32.0008C22.2894 33.0922 24.4469 33.7734 26.6754 34.0022C33.0077 34.6715 38.1365 32.3644 42.1264 27.4937C45.6005 23.2212 50.0059 20.6506 55.543 20.1379L57.52 19.9385Z" fill="#141414"/>
<path d="M57.3913 14.3842V16.9549C56.0088 16.784 54.6764 16.7199 53.3942 16.4422C48.7486 15.4095 44.6216 12.7729 41.7469 9.00087C40.4044 7.27247 38.7206 5.83514 36.799 4.77714C34.8774 3.71914 32.7584 3.06281 30.5724 2.84844C28.1011 2.54396 25.5925 2.80034 23.2352 3.59833C20.8779 4.39631 18.7332 5.71513 16.9624 7.45564C16.0741 8.28166 15.3507 9.29282 14.5269 10.2043C11.275 13.9662 6.66897 16.3106 1.69767 16.7341L0 16.8979V14.37C2.32711 14.3349 4.62296 13.8316 6.74908 12.8905C8.8752 11.9493 10.7875 10.5899 12.3708 8.89405C13.6501 7.40162 15.0057 5.97557 16.4323 4.62154C19.8532 1.76196 24.1795 0.194092 28.6491 0.194092C33.1187 0.194092 37.4449 1.76196 40.8659 4.62154C42.2802 5.94231 43.6171 7.34267 44.8701 8.81573C46.4644 10.5442 48.3978 11.9299 50.5512 12.8876C52.7046 13.8453 55.0324 14.3546 57.3913 14.3842Z" fill="#141414"/>
<path d="M331.132 32.8556L326.218 36.7365L308.969 17.2111L313.89 13.3445C319.642 19.8601 325.365 26.3472 331.132 32.8556Z" fill="#141414"/>
<path d="M368.337 11.6283L371.203 13.6506C370.114 14.2559 369.161 14.8255 368.172 15.3311C368.041 15.3696 367.903 15.3787 367.768 15.3577C367.633 15.3368 367.505 15.2864 367.392 15.2101C366.803 14.7662 366.238 14.2908 365.701 13.7859C365.533 13.6162 365.311 13.5084 365.073 13.4799C364.835 13.4515 364.594 13.5041 364.39 13.6292C362.829 14.2487 361.231 14.7686 359.648 15.3454C359.441 15.4382 359.207 15.4533 358.99 15.3879C358.773 15.3224 358.587 15.1808 358.466 14.9893C357.922 14.2772 357.342 13.6364 356.711 12.8958L361.826 11.6211V11.3719L358.961 9.75548L361.339 7.83285C362.521 8.44524 363.667 9.06476 364.856 9.62019C365.012 9.68889 365.18 9.72438 365.35 9.72438C365.52 9.72438 365.689 9.68889 365.844 9.62019C366.89 8.99355 367.893 8.28858 368.982 7.56226L371.768 9.31399L368.337 11.6283Z" fill="#141414"/>
<path d="M368.015 3.87375L370.622 5.79638L367.391 7.59796C366.847 7.0995 366.317 6.67225 365.858 6.17379C365.62 5.87711 365.279 5.67927 364.901 5.61874C364.524 5.5582 364.137 5.63928 363.817 5.84623C362.313 6.51559 360.737 7.05677 359.175 7.59084C359.026 7.62139 358.872 7.61805 358.724 7.58105C358.577 7.54406 358.44 7.47438 358.323 7.37721C357.549 6.66513 356.833 5.89607 356.088 5.13414L361.482 3.70997C361.482 3.63876 361.482 3.56043 361.482 3.48922L358.158 1.73037C359.075 1.13934 359.899 0.562548 360.773 0.0569669C361.04 -0.00751591 361.323 0.0333056 361.561 0.170901C362.535 0.647999 363.516 1.11798 364.426 1.68052C364.616 1.82433 364.849 1.90218 365.088 1.90218C365.328 1.90218 365.56 1.82433 365.751 1.68052L368.33 0L370.994 1.78022L368.015 3.87375Z" fill="#141414"/>
<path d="M168.693 31.104L163.485 32.7561C161.336 29.0176 159.237 25.2151 156.214 21.9466C157.719 21.4268 159.158 20.9141 160.613 20.4654C160.799 20.4085 161.186 20.6435 161.329 20.85C163.583 23.9214 165.823 27.0071 168.048 30.1071C168.27 30.3634 168.442 30.691 168.693 31.104Z" fill="#141414"/>
<path d="M130.369 22.9649C128.736 27.0309 127.017 30.9402 124.281 34.3084C124.198 34.4047 124.095 34.4805 123.978 34.53C123.861 34.5794 123.734 34.6011 123.607 34.5932C122.175 34.0876 120.742 33.5322 119.195 32.9412C121.901 29.6948 124.011 25.9995 125.427 22.0249L130.369 22.9649Z" fill="#141414"/>
<path d="M207.481 19.5823L203.018 21.5619L196.672 14.9537C197.825 14.4339 199.007 13.8642 200.218 13.38C200.373 13.348 200.533 13.3512 200.687 13.3894C200.841 13.4276 200.984 13.4999 201.106 13.6008C203.205 15.559 205.275 17.5101 207.481 19.5823Z" fill="#141414"/>
<path d="M153.413 27.2444L148.994 29.1955L142.654 22.6229L146.687 20.8071L153.413 27.2444Z" fill="#141414"/>
<path d="M209.208 10.19L204.738 12.1696L198.42 5.58989C199.609 5.05583 200.863 4.48616 202.13 3.94497C202.224 3.92424 202.322 3.92568 202.415 3.94917C202.509 3.97267 202.595 4.01757 202.668 4.08027C204.802 6.08123 206.958 8.09644 209.208 10.19Z" fill="#141414"/>
</g>
<defs>
<clipPath id="clip0_327_1633">
<rect width="388" height="37" fill="white"/>
</clipPath>
</defs>
</svg>
