<svg width="100" height="100" viewBox="0 0 100 100" fill="none" xmlns="http://www.w3.org/2000/svg">
<g clip-path="url(#clip0_124_199)">
<path d="M50 100C40.1109 100 30.444 97.0676 22.2215 91.5735C13.9991 86.0794 7.59043 78.2705 3.80604 69.1342C0.0216641 59.9979 -0.968502 49.9445 0.960758 40.2455C2.89002 30.5464 7.65206 21.6373 14.6447 14.6447C21.6373 7.65206 30.5464 2.89002 40.2455 0.960758C49.9445 -0.968502 59.9979 0.0216641 69.1342 3.80604C78.2705 7.59043 86.0794 13.9991 91.5735 22.2215C97.0676 30.444 100 40.1109 100 50C99.9841 63.256 94.7112 75.9644 85.3378 85.3378C75.9644 94.7112 63.256 99.9841 50 100ZM50 4.00002C40.9021 4.00002 32.0084 6.69787 24.4438 11.7524C16.8791 16.807 10.9832 23.9912 7.50156 32.3966C4.01993 40.802 3.10898 50.051 4.8839 58.9742C6.65882 67.8973 11.0399 76.0937 17.4731 82.5269C23.9063 88.9601 32.1027 93.3412 41.0259 95.1161C49.949 96.891 59.198 95.9801 67.6034 92.4985C76.0088 89.0168 83.1931 83.1209 88.2476 75.5562C93.3021 67.9916 96 59.0979 96 50C95.9841 37.8049 91.1326 26.1139 82.5094 17.4906C73.8861 8.86741 62.1951 4.0159 50 4.00002Z" fill="#D9D9D9"/>
<path d="M25.9999 52.92C25.5357 52.9166 25.0871 52.7517 24.7311 52.4537C24.3751 52.1557 24.1339 51.7432 24.0488 51.2868C23.9637 50.8305 24.04 50.3587 24.2646 49.9524C24.4892 49.5461 24.8481 49.2306 25.2799 49.06L39.0699 43.75L25.0699 36.75C24.8272 36.6369 24.6096 36.4761 24.4302 36.2773C24.2508 36.0784 24.1131 35.8456 24.0254 35.5926C23.9377 35.3395 23.9016 35.0715 23.9195 34.8042C23.9373 34.537 24.0086 34.2761 24.1292 34.037C24.2498 33.7978 24.4171 33.5853 24.6214 33.4121C24.8256 33.2389 25.0626 33.1084 25.3182 33.0285C25.5738 32.9486 25.8429 32.9208 26.1094 32.9468C26.376 32.9729 26.6346 33.0522 26.8699 33.18L44.8699 42.25C45.218 42.4232 45.5081 42.6941 45.7046 43.0296C45.9012 43.3651 45.9957 43.7506 45.9766 44.1389C45.9575 44.5272 45.8256 44.9016 45.5971 45.2161C45.3686 45.5307 45.0533 45.7718 44.6899 45.91L26.6899 52.83C26.4669 52.9001 26.2334 52.9306 25.9999 52.92Z" fill="#D9D9D9"/>
<path d="M73.9998 52.92C73.7539 52.9213 73.5098 52.8772 73.2798 52.79L55.2798 45.87C54.9164 45.7318 54.6012 45.4907 54.3726 45.1761C54.1441 44.8615 54.0122 44.4872 53.9931 44.0989C53.974 43.7105 54.0685 43.325 54.2651 42.9896C54.4616 42.6541 54.7517 42.3832 55.0998 42.21L73.0998 33.14C73.3351 33.0121 73.5937 32.9328 73.8603 32.9068C74.1268 32.8808 74.3959 32.9085 74.6515 32.9885C74.9071 33.0684 75.1441 33.1988 75.3483 33.3721C75.5526 33.5453 75.7199 33.7578 75.8405 33.9969C75.9611 34.2361 76.0324 34.497 76.0502 34.7642C76.0681 35.0314 76.032 35.2995 75.9443 35.5525C75.8566 35.8056 75.7189 36.0384 75.5395 36.2372C75.3601 36.4361 75.1425 36.5968 74.8998 36.71L60.8998 43.71L74.6898 49.02C75.1479 49.1696 75.5366 49.4796 75.7844 49.8929C76.0321 50.3062 76.1223 50.7951 76.0384 51.2696C75.9544 51.7442 75.702 52.1724 75.3274 52.4756C74.9529 52.7789 74.4814 52.9367 73.9998 52.92Z" fill="#D9D9D9"/>
<path d="M49.0002 84C26.3002 84 24.0002 58.42 24.0002 58.16C23.9771 57.8844 24.0113 57.6071 24.1008 57.3455C24.1903 57.0839 24.3331 56.8436 24.5202 56.64C24.7089 56.4364 24.938 56.2744 25.1928 56.1642C25.4476 56.054 25.7226 55.9981 26.0002 56H74.0002C74.292 55.9962 74.5812 56.0564 74.8474 56.1763C75.1135 56.2962 75.3502 56.4728 75.5408 56.6939C75.7314 56.915 75.8713 57.1752 75.9506 57.4561C76.03 57.737 76.0469 58.0318 76.0002 58.32C75.9302 58.57 71.6002 84 49.0002 84ZM28.3002 60C29.3002 65.6 33.4102 80 49.0402 80C64.6702 80 70.0002 65.74 71.5102 60H28.3002Z" fill="#D9D9D9"/>
</g>
<defs>
<clipPath id="clip0_124_199">
<rect width="100" height="100" fill="white"/>
</clipPath>
</defs>
</svg>
