<svg width="303" height="508" viewBox="0 0 303 508" fill="none" xmlns="http://www.w3.org/2000/svg">
<path d="M141.345 133.207C144.545 132.347 146.865 127.877 148.095 120.207C147.179 120.456 146.234 120.58 145.285 120.577C142.221 120.446 139.216 119.691 136.455 118.357C136.055 122.047 134.695 124.647 132.345 126.077C131.615 126.532 130.819 126.87 129.985 127.077C132.175 129.507 137.165 134.337 141.345 133.207Z" fill="white"/>
<path d="M107.645 116.257C105.045 117.257 101.945 116.347 99.1746 114.007C99.8807 114.536 100.703 114.887 101.573 115.031C102.444 115.176 103.336 115.109 104.175 114.837C107.525 113.487 108.535 108.167 106.435 102.947C104.335 97.7273 99.9146 94.5873 96.5646 95.9473C93.2146 97.3073 92.2346 102.547 94.2846 107.737C93.9646 107.107 93.6546 106.467 93.3846 105.797C91.2946 100.607 91.1846 95.1573 93.0446 91.5973C96.6797 93.3918 100.638 94.4391 104.685 94.6773C105.647 94.7371 106.612 94.7371 107.575 94.6773H107.695C107.925 94.6773 108.165 94.6773 108.395 94.6773C109.276 95.9911 110.013 97.3959 110.595 98.8673C112.087 102.35 112.576 106.181 112.005 109.927C111.415 113.117 109.865 115.367 107.645 116.257ZM151.005 71.8073C150.237 71.8061 149.477 71.9521 148.765 72.2373C145.765 73.4273 144.175 76.9273 144.115 81.2373C144.318 80.5092 144.679 79.8346 145.171 79.261C145.663 78.6873 146.276 78.2287 146.965 77.9173C150.315 76.5673 154.735 79.7073 156.835 84.9173C158.935 90.1273 157.925 95.4573 154.575 96.8073C153.784 97.0784 152.941 97.1608 152.112 97.048C151.284 96.9351 150.494 96.6301 149.805 96.1573C152.955 99.6773 156.805 101.347 159.995 100.077C162.205 99.1873 163.765 96.9373 164.365 93.7573C164.953 90.0068 164.471 86.1662 162.975 82.6773C160.315 76.1873 155.315 71.8073 151.005 71.8073Z" fill="white"/>
<path d="M167.134 421.997C167.794 432.277 153.134 475.447 145.804 480.997C145.227 481.324 144.566 481.47 143.904 481.417C143.703 481.352 143.486 481.352 143.284 481.417C133.804 480.867 103.064 467.927 84.1845 456.027C72.5745 448.707 72.7245 446.137 72.7845 445.867C72.8745 445.437 73.6845 445.057 74.9545 444.867C93.7945 441.867 118.024 387.217 121.954 377.967C123.354 379.117 124.814 380.227 126.354 381.307C142.22 392.385 156.022 406.156 167.134 421.997ZM270.634 462.537C272.554 463.537 273.984 463.537 274.874 462.747C276.954 460.847 277.144 453.587 272.644 442.147C266.904 427.527 222.044 349.147 211.884 335.957C202.884 324.247 203.124 297.957 203.344 291.227C195.514 294.227 171.084 302.227 150.734 302.227C145.609 302.333 140.497 301.659 135.574 300.227C128.994 298.147 124.414 294.427 121.954 289.177L121.744 288.737C117.544 294.897 101.224 320.857 105.324 346.247C107.484 359.607 114.954 370.837 127.544 379.627C157.253 400.345 179.393 430.187 190.604 464.627C190.804 465.247 190.944 465.687 191.034 465.917C191.194 466.327 191.354 466.917 191.584 467.777C193.074 473.247 196.584 486.057 208.394 484.057C209.917 483.781 211.406 483.342 212.834 482.747C214.357 482.12 215.831 481.381 217.244 480.537C220.244 478.807 223.624 476.867 227.244 474.917C242.574 466.727 262.064 458.217 270.634 462.507V462.537Z" fill="white"/>
<path d="M143.005 483.247C151.665 491.637 147.575 499.747 145.365 504.127C145.135 504.567 144.935 504.967 144.805 505.267C144.675 505.567 143.595 505.607 141.895 504.717C141.765 504.657 141.395 504.537 138.315 503.507C129.215 500.507 105.055 492.387 91.6947 486.967C87.5247 484.867 87.5247 484.867 88.8547 479.967C91.2547 471.187 93.4447 465.207 93.9447 463.877C110.455 472.707 133.285 482.567 143.005 483.247ZM286.705 479.927C268.225 479.347 259.385 467.457 257.435 464.437C250.025 466.227 240.225 470.297 228.775 476.377L230.605 500.497C230.605 500.667 231.085 504.617 239.555 504.617H298.795C299.525 501.777 301.795 491.067 297.315 484.767C295.135 481.707 291.565 480.077 286.725 479.927H286.705Z" fill="white"/>
<path d="M287.545 136.167L290.845 139.817C294.575 143.577 291.845 146.897 290.945 147.817C288.355 150.417 283.845 151.487 281.235 148.937L280.795 148.507C282.474 146.501 283.898 144.294 285.035 141.937C285.977 140.062 286.815 138.136 287.545 136.167ZM245.695 94.7273C247.583 92.3645 248.767 89.5168 249.11 86.5113C249.453 83.5059 248.942 80.4647 247.634 77.7369C246.327 75.0091 244.277 72.7054 241.719 71.0905C239.161 69.4756 236.199 68.6149 233.175 68.6073C232.575 68.6073 231.975 68.6073 231.375 68.7073C228.747 68.9972 226.231 69.931 224.05 71.4259C221.869 72.9209 220.091 74.9308 218.873 77.2774C217.655 79.6241 217.035 82.235 217.068 84.8787C217.1 87.5224 217.785 90.1173 219.06 92.4332C220.336 94.7491 222.163 96.7145 224.38 98.1551C226.597 99.5958 229.135 100.467 231.769 100.692C234.404 100.917 237.053 100.489 239.482 99.4446C241.911 98.4006 244.045 96.7734 245.695 94.7073V94.7273ZM250.955 95.7273L248.955 93.4673C247.674 95.7605 245.91 97.7474 243.784 99.2896C241.658 100.832 239.222 101.892 236.645 102.397L240.005 105.917C242.805 101.917 247.405 98.2373 251.005 95.7373L250.955 95.7273Z" fill="white"/>
<path d="M208.605 178.377C203.529 165.837 196.584 154.138 188.005 143.677C191.225 141.897 201.205 136.397 203.005 135.607L203.885 135.197C205.125 134.607 205.385 134.487 208.935 134.487C211.495 134.487 215.415 137.727 219.175 142.927C224.925 150.927 229.535 162.597 227.235 169.497C226.887 170.441 226.355 171.304 225.668 172.038C224.98 172.771 224.153 173.359 223.235 173.767L208.605 178.377ZM116.485 293.377C118.485 289.997 120.075 287.657 120.755 286.697C113.925 272.807 110.085 271.137 108.755 271.097C108.452 271.083 108.152 271.155 107.889 271.303C107.625 271.452 107.409 271.671 107.265 271.937C107.141 272.173 106.929 272.351 106.675 272.43C106.421 272.51 106.146 272.486 105.91 272.362C105.674 272.239 105.496 272.027 105.416 271.773C105.337 271.519 105.361 271.243 105.485 271.007C105.801 270.431 106.265 269.951 106.829 269.615C107.394 269.279 108.038 269.1 108.695 269.097H108.765C112.765 269.167 117.875 275.647 123.815 288.357C126.025 293.077 130.205 296.447 136.225 298.357C158.225 305.357 197.705 291.527 204.075 288.817H204.155L204.865 288.487C207.045 287.237 207.475 284.617 207.715 282.257C209.035 268.807 213.465 210.547 211.265 194.577C210.467 189.654 209.126 184.835 207.265 180.207C207.213 180.134 207.172 180.053 207.145 179.967C207.145 179.967 207.145 179.907 207.145 179.877C200.215 162.087 186.395 140.877 174.625 134.347C166.013 139.934 156.72 144.393 146.975 147.617C134.149 151.861 120.734 154.054 107.225 154.117C103.574 154.119 99.9263 153.935 96.2946 153.567C96.2286 153.71 96.1299 153.835 96.0065 153.932C95.8832 154.029 95.7386 154.096 95.5846 154.127L73.5846 158.007C72.6739 158.166 71.8348 158.603 71.1829 159.259C70.531 159.914 70.0984 160.756 69.9446 161.667C69.8246 162.417 69.6846 163.267 69.5446 164.207L75.9046 164.697C75.05 163.155 74.0451 161.702 72.9046 160.357C72.7243 160.162 72.6287 159.904 72.6391 159.638C72.6494 159.373 72.7647 159.123 72.9596 158.942C73.1545 158.762 73.4131 158.666 73.6785 158.677C73.9439 158.687 74.1943 158.802 74.3746 158.997C75.9373 160.889 77.2793 162.952 78.3746 165.147C78.5021 165.284 78.5887 165.454 78.6246 165.637C82.0545 172.71 83.891 180.448 84.0046 188.307C84.0595 188.458 84.08 188.618 84.0646 188.777C84.0646 188.837 84.0646 188.877 84.0146 188.927C84.0761 197.425 82.7243 205.873 80.0146 213.927C79.9468 214.136 79.8121 214.317 79.6314 214.442C79.4507 214.566 79.2339 214.628 79.0146 214.617C78.9091 214.62 78.8039 214.603 78.7046 214.567C78.4528 214.485 78.2439 214.306 78.1239 214.07C78.0039 213.834 77.9826 213.559 78.0646 213.307C80.6507 205.638 81.9811 197.601 82.0046 189.507C79.8946 189.227 74.3346 188.507 68.2246 187.827C68.7746 199.987 71.7346 208.677 77.2246 214.347C77.9086 215.053 78.7699 215.562 79.7182 215.821C80.6665 216.079 81.6669 216.078 82.6146 215.817C115.555 206.657 132.475 173.507 132.615 173.177C132.737 172.948 132.945 172.776 133.192 172.697C133.44 172.618 133.708 172.639 133.941 172.755C134.174 172.87 134.352 173.072 134.439 173.317C134.525 173.562 134.513 173.831 134.405 174.067C130.775 180.714 126.389 186.918 121.335 192.557C134.125 191.727 156.885 214.397 157.935 215.457C158.121 215.645 158.225 215.898 158.225 216.162C158.225 216.427 158.121 216.68 157.935 216.867C157.842 216.961 157.731 217.035 157.609 217.086C157.487 217.137 157.357 217.163 157.225 217.163C157.093 217.163 156.962 217.137 156.84 217.086C156.718 217.035 156.608 216.961 156.515 216.867C149.325 209.647 129.515 192.427 120.285 194.707C125.635 199.507 145.595 218.897 141.735 238.027C139.245 250.417 127.195 260.027 105.945 266.537C105.122 267.055 104.433 267.759 103.935 268.594C103.436 269.428 103.141 270.368 103.075 271.337C102.545 278.997 113.305 290.217 116.485 293.347V293.377Z" fill="white"/>
<path d="M9.36475 164.877C9.36475 164.223 9.55887 163.583 9.92258 163.038C10.2863 162.494 10.8032 162.07 11.4081 161.819C12.0129 161.569 12.6784 161.503 13.3205 161.631C13.9626 161.759 14.5524 162.074 15.0153 162.537C15.4782 163 15.7934 163.59 15.9211 164.232C16.0489 164.874 15.9833 165.539 15.7328 166.144C15.4823 166.749 15.058 167.266 14.5137 167.63C13.9694 167.993 13.3294 168.187 12.6747 168.187C11.7969 168.187 10.955 167.839 10.3342 167.218C9.71348 166.597 9.36475 165.755 9.36475 164.877ZM16.3647 181.577C16.3647 180.922 16.1704 180.282 15.8062 179.737C15.4421 179.193 14.9245 178.769 14.3191 178.518C13.7137 178.268 13.0477 178.203 12.4053 178.332C11.763 178.46 11.1732 178.776 10.7107 179.24C10.2482 179.704 9.93372 180.295 9.80713 180.938C9.68055 181.58 9.74752 182.246 9.99958 182.851C10.2516 183.456 10.6775 183.972 11.2231 184.334C11.7687 184.697 12.4097 184.889 13.0647 184.887C13.5023 184.893 13.9366 184.811 14.3422 184.647C14.7479 184.483 15.1168 184.24 15.4277 183.932C15.7385 183.624 15.9849 183.257 16.1527 182.853C16.3204 182.448 16.4061 182.015 16.4047 181.577H16.3647ZM22.0647 152.877C22.717 152.875 23.354 152.68 23.8954 152.316C24.4368 151.953 24.8582 151.436 25.1064 150.833C25.3546 150.23 25.4186 149.567 25.2901 148.927C25.1617 148.288 24.8466 147.701 24.3847 147.24C23.9228 146.78 23.3347 146.467 22.6949 146.34C22.055 146.214 21.392 146.279 20.7896 146.529C20.1872 146.78 19.6724 147.203 19.3102 147.745C18.948 148.287 18.7547 148.925 18.7547 149.577C18.7547 150.015 18.8417 150.448 19.0106 150.852C19.1796 151.256 19.4272 151.622 19.7389 151.929C20.0507 152.236 20.4204 152.478 20.8265 152.641C21.2327 152.803 21.6672 152.884 22.1047 152.877H22.0647ZM32.8247 156.707C27.0747 156.707 22.4047 164.367 22.4047 173.777C22.4047 183.187 27.0747 190.837 32.8247 190.837C38.5747 190.837 43.2347 183.187 43.2347 173.777C43.2347 164.367 38.6047 156.707 32.8647 156.707H32.8247ZM18.1847 192.837C17.5301 192.837 16.8901 193.031 16.3458 193.395C15.8015 193.759 15.3772 194.276 15.1267 194.881C14.8762 195.485 14.8106 196.151 14.9383 196.793C15.0661 197.435 15.3813 198.025 15.8442 198.488C16.3071 198.951 16.8969 199.266 17.539 199.394C18.1811 199.521 18.8466 199.456 19.4514 199.205C20.0563 198.955 20.5732 198.531 20.9369 197.986C21.3006 197.442 21.4947 196.802 21.4947 196.147C21.4947 195.269 21.146 194.428 20.5253 193.807C19.9045 193.186 19.0626 192.837 18.1847 192.837Z" fill="white"/>
<path d="M209.935 71.3573C208.087 65.845 204.36 61.1581 199.405 58.1173C199.271 58.1052 199.141 58.0662 199.022 58.0026C198.904 57.9391 198.799 57.8522 198.715 57.7473L198.625 57.6273C190.625 52.8073 179.555 50.6273 166.975 50.6273C151.765 50.6273 134.405 53.7773 117.885 59.2073C107.793 62.4916 98.073 66.8253 88.8849 72.1373L88.7349 72.2373C80.5967 76.9096 73.1033 82.6246 66.4449 89.2373C53.9749 101.877 49.1449 115.017 52.8249 126.237C58.2149 142.657 80.2249 152.107 106.945 152.107C120.318 152.041 133.598 149.867 146.295 145.667C166.175 139.137 184.665 126.897 197.015 112.087C209.005 97.6773 213.705 82.8273 209.935 71.3573ZM134.355 70.0573C134.455 69.6873 136.745 60.9473 144.355 57.7673C149.725 55.5373 156.265 56.6573 163.815 61.1073C163.942 61.1649 164.056 61.2487 164.15 61.3531C164.243 61.4576 164.313 61.5804 164.355 61.7136C164.398 61.8469 164.412 61.9876 164.397 62.1267C164.382 62.2658 164.338 62.4002 164.268 62.5212C164.197 62.6421 164.102 62.747 163.989 62.829C163.876 62.9109 163.746 62.9682 163.609 62.9971C163.472 63.0259 163.331 63.0257 163.194 62.9965C163.057 62.9672 162.928 62.9096 162.815 62.8273C155.815 58.7173 149.895 57.6373 145.145 59.6073C138.445 62.3873 136.305 70.4773 136.285 70.6073C136.219 70.8626 136.055 71.0815 135.828 71.2163C135.602 71.3512 135.331 71.3911 135.075 71.3273C134.942 71.2952 134.817 71.2361 134.708 71.1537C134.598 71.0714 134.507 70.9674 134.44 70.8484C134.372 70.7293 134.33 70.5977 134.315 70.4616C134.301 70.3256 134.314 70.1879 134.355 70.0573ZM114.005 110.297C113.265 114.177 111.275 116.957 108.405 118.107C107.482 118.474 106.498 118.661 105.505 118.657C100.315 118.657 94.5049 113.827 91.5949 106.527C89.3049 100.857 89.2249 94.8273 91.2949 90.7573C88.0003 89.2483 84.798 87.5454 81.7049 85.6573C81.5318 85.4983 81.4202 85.2833 81.3898 85.0502C81.3594 84.8171 81.4121 84.5808 81.5386 84.3826C81.6651 84.1845 81.8574 84.0373 82.0816 83.9668C82.3059 83.8963 82.5478 83.9071 82.7649 83.9973C86.0945 86.0131 89.5481 87.8167 93.1049 89.3973C97.2281 91.4033 101.723 92.5304 106.305 92.7073C106.785 92.7073 107.305 92.7073 107.795 92.7073C108.135 92.7073 108.485 92.7073 108.795 92.6473H108.865C109.795 92.5773 110.765 92.4673 111.805 92.3173C111.935 92.2974 112.068 92.3034 112.195 92.3349C112.323 92.3664 112.443 92.4227 112.549 92.5008C112.655 92.5788 112.745 92.6769 112.812 92.7896C112.88 92.9023 112.925 93.0272 112.945 93.1573C112.965 93.2873 112.959 93.42 112.927 93.5477C112.896 93.6754 112.84 93.7957 112.761 93.9016C112.683 94.0075 112.585 94.0969 112.473 94.1648C112.36 94.2327 112.235 94.2778 112.105 94.2973L110.645 94.4873C111.351 95.652 111.959 96.8728 112.465 98.1373C114.102 101.968 114.636 106.18 114.005 110.297ZM150.265 119.297C148.955 128.637 146.135 133.957 141.875 135.107C141.294 135.263 140.696 135.34 140.095 135.337C134.515 135.337 128.925 128.957 127.585 127.337H127.415C122.485 127.337 117.415 124.627 117.115 124.477C116.999 124.412 116.898 124.324 116.816 124.219C116.735 124.114 116.674 123.994 116.639 123.866C116.604 123.738 116.594 123.604 116.611 123.472C116.627 123.34 116.669 123.213 116.735 123.097C116.801 122.982 116.888 122.88 116.993 122.799C117.098 122.717 117.218 122.657 117.346 122.621C117.474 122.586 117.608 122.576 117.74 122.593C117.872 122.609 117.999 122.652 118.115 122.717C118.195 122.767 126.645 127.267 131.365 124.387C133.205 123.267 134.265 121.067 134.545 117.887C133.269 117.754 132.046 117.308 130.985 116.587C128.575 115.117 126.135 112.667 126.135 110.827C126.135 108.987 129.525 107.367 130.975 106.827C133.895 105.657 137.575 104.957 138.755 106.197C139.755 107.267 139.585 109.497 139.375 110.727C139.046 112.791 138.242 114.749 137.025 116.447C139.305 117.527 145.335 119.977 149.145 117.727C151.465 116.367 152.635 113.387 152.635 108.867C152.635 108.602 152.74 108.348 152.928 108.16C153.115 107.973 153.37 107.867 153.635 107.867C153.9 107.867 154.155 107.973 154.342 108.16C154.53 108.348 154.635 108.602 154.635 108.867C154.575 113.997 153.115 117.547 150.245 119.327L150.265 119.297ZM166.265 94.1273C165.535 97.9973 163.545 100.777 160.675 101.927C159.751 102.302 158.762 102.492 157.765 102.487C152.585 102.487 146.765 97.6473 143.865 90.3473C140.355 81.6373 142.195 72.6673 147.955 70.3473C153.715 68.0273 161.285 73.2473 164.795 81.9973C166.418 85.8318 166.934 90.0444 166.285 94.1573L166.265 94.1273ZM248.315 120.817C242.645 118.927 239.615 116.407 239.315 113.327C238.765 107.737 247.095 100.737 253.105 96.6473C254.595 95.6473 255.945 94.7873 256.985 94.1973C261.135 91.5973 271.175 93.6373 278.985 100.697C283.985 105.287 294.565 118.417 283.265 141.037C278.355 150.847 272.595 152.607 269.175 151.137C267.944 150.636 266.949 149.686 266.392 148.479C265.835 147.273 265.757 145.899 266.175 144.637C266.23 144.486 266.247 144.324 266.226 144.165C266.205 144.006 266.145 143.854 266.053 143.723C265.961 143.592 265.838 143.484 265.696 143.41C265.554 143.336 265.395 143.297 265.235 143.297C265.097 143.299 264.961 143.329 264.835 143.386C264.71 143.443 264.597 143.525 264.505 143.627C264.019 144.115 263.403 144.451 262.731 144.597C262.059 144.742 261.358 144.69 260.715 144.447C259.459 144.063 258.322 143.364 257.412 142.418C256.502 141.471 255.849 140.307 255.515 139.037C255.387 138.343 255.46 137.627 255.726 136.973C255.992 136.319 256.439 135.755 257.015 135.347C257.129 135.275 257.237 135.191 257.335 135.097C257.51 134.922 257.613 134.688 257.626 134.44C257.638 134.193 257.558 133.95 257.401 133.758C257.244 133.566 257.021 133.44 256.776 133.403C256.532 133.365 256.282 133.421 256.075 133.557L255.845 133.727C254.845 134.287 251.905 134.127 249.615 132.327C248.639 131.552 247.924 130.496 247.566 129.301C247.209 128.107 247.226 126.832 247.615 125.647C247.699 125.496 247.773 125.339 247.835 125.177C247.904 125.013 247.925 124.833 247.895 124.657C248.183 123.832 248.541 123.032 248.965 122.267C249.037 122.139 249.08 121.996 249.09 121.849C249.1 121.702 249.078 121.555 249.025 121.417C248.962 121.275 248.867 121.15 248.747 121.051C248.627 120.952 248.486 120.882 248.335 120.847L248.315 120.817ZM220.815 141.727C220.415 141.177 219.895 140.487 219.275 139.727C235.425 133.997 242.275 130.287 245.275 127.987C245.323 129.127 245.615 130.243 246.133 131.259C246.651 132.276 247.381 133.169 248.275 133.877C249.89 135.123 251.84 135.857 253.875 135.987C253.38 137.041 253.23 138.223 253.445 139.367C253.773 140.923 254.528 142.357 255.625 143.507C251.985 145.407 241.125 150.437 230.625 155.317L228.275 156.407C226.548 151.177 224.04 146.237 220.835 141.757L220.815 141.727ZM144.615 50.5873C145.155 42.8073 149.415 3.9673 154.175 1.9973C154.255 1.9973 154.445 1.8873 154.855 2.2973C161.405 8.8473 187.235 42.6373 195.855 53.9973C183.005 48.0973 164.335 47.4273 144.635 50.6173L144.615 50.5873ZM57.0749 97.3273C48.8649 75.7573 39.4649 45.5773 43.2249 42.6473C43.6949 42.2873 44.7749 42.6473 46.2249 43.6473C64.1049 56.3773 81.5249 68.0873 86.3649 71.3273C78.5858 75.9128 71.4102 81.4523 65.0049 87.8173C62.0821 90.7434 59.4281 93.9262 57.0749 97.3273ZM108.005 307.417C102.355 296.117 81.6649 284.537 61.0049 285.997C46.0749 287.057 26.0049 294.997 15.4149 326.887C8.33492 348.127 13.2149 371.037 26.7549 380.187C37.2949 387.297 50.8849 384.597 65.0249 372.567C65.4255 372.227 65.8892 371.968 66.3896 371.806C66.8901 371.645 67.4175 371.583 67.9417 371.626C68.4659 371.668 68.9766 371.813 69.4447 372.053C69.9128 372.292 70.3291 372.622 70.6699 373.022C71.0107 373.423 71.2693 373.887 71.4308 374.387C71.5924 374.887 71.6538 375.415 71.6115 375.939C71.5693 376.463 71.4242 376.974 71.1846 377.442C70.9449 377.91 70.6155 378.327 70.2149 378.667C59.9049 387.427 49.2149 392.057 39.3049 392.057C33.2367 392.074 27.3073 390.242 22.3049 386.807C5.55492 375.547 -0.525075 349.277 7.78493 324.357C20.4449 286.397 46.1849 278.997 60.3949 277.997C83.4649 276.377 104.115 287.777 112.845 299.997C111.475 302.707 110.075 305.737 108.775 308.997C108.515 308.477 108.245 307.897 108.005 307.417ZM76.9149 166.727L49.4949 164.617C49.2899 164.599 49.0954 164.519 48.9379 164.386C48.7805 164.254 48.6677 164.076 48.6149 163.877C48.5549 163.667 42.5449 142.517 23.4749 140.617C14.9349 139.757 9.10493 141.857 7.47493 146.377C6.96455 147.878 6.9453 149.502 7.41998 151.014C7.89466 152.526 8.83859 153.848 10.1149 154.787C10.2755 154.895 10.4016 155.046 10.4779 155.224C10.5542 155.401 10.5775 155.597 10.5449 155.787C10.5075 155.981 10.4134 156.16 10.2746 156.3C10.1358 156.441 9.95844 156.537 9.76493 156.577C7.60476 156.983 5.6517 158.125 4.23722 159.807C2.82275 161.489 2.03403 163.609 2.00493 165.807C1.94806 167.459 2.5071 169.072 3.57344 170.334C4.63977 171.597 6.13725 172.417 7.77493 172.637C7.97637 172.682 8.15895 172.789 8.29763 172.941C8.4363 173.094 8.52427 173.286 8.54947 173.491C8.57467 173.696 8.53585 173.904 8.43836 174.086C8.34086 174.268 8.18946 174.415 8.00493 174.507C4.00493 176.507 1.56493 180.667 2.13493 184.427C2.62493 187.697 5.31493 189.897 9.71493 190.627C9.88709 190.656 10.0487 190.729 10.1838 190.84C10.3189 190.95 10.4227 191.094 10.4849 191.257C10.5524 191.421 10.575 191.601 10.5504 191.776C10.5258 191.952 10.4549 192.118 10.3449 192.257C9.52053 193.205 8.99745 194.378 8.84248 195.625C8.68752 196.871 8.90771 198.136 9.47493 199.257C11.1049 202.477 15.2349 204.557 19.8049 204.457C29.8049 204.217 48.7149 194.737 50.5749 185.457C50.6217 185.228 50.7473 185.022 50.9301 184.876C51.1128 184.73 51.341 184.653 51.5749 184.657C55.5749 184.657 61.4649 185.137 67.0249 185.717H67.1449C67.2864 185.718 67.4262 185.749 67.5549 185.807C73.7449 186.457 79.5549 187.217 81.9649 187.547C81.7677 180.329 80.0468 173.234 76.9149 166.727ZM22.0949 144.267C23.1456 144.265 24.1732 144.575 25.0477 145.157C25.9223 145.74 26.6044 146.568 27.0078 147.538C27.4113 148.508 27.5179 149.576 27.3141 150.607C27.1104 151.638 26.6054 152.585 25.8632 153.328C25.121 154.072 24.1748 154.579 23.1445 154.785C22.1142 154.99 21.046 154.886 20.0752 154.484C19.1043 154.082 18.2744 153.402 17.6905 152.528C17.1066 151.655 16.7949 150.628 16.7949 149.577C16.7949 148.171 17.353 146.822 18.3467 145.826C19.3403 144.831 20.6884 144.27 22.0949 144.267ZM7.36493 164.877C7.36493 163.827 7.67661 162.8 8.26052 161.926C8.84443 161.053 9.67433 160.372 10.6452 159.971C11.6161 159.569 12.6842 159.464 13.7145 159.67C14.7448 159.876 15.691 160.382 16.4332 161.126C17.1754 161.87 17.6804 162.817 17.8841 163.848C18.0879 164.878 17.9813 165.946 17.5778 166.916C17.1744 167.886 16.4923 168.715 15.6177 169.297C14.7432 169.88 13.7156 170.189 12.6649 170.187C11.2584 170.185 9.91031 169.624 8.91665 168.629C7.92299 167.633 7.36492 166.284 7.36493 164.877ZM7.79493 181.577C7.79493 180.527 8.10661 179.5 8.69052 178.626C9.27443 177.753 10.1043 177.072 11.0752 176.671C12.0461 176.269 13.1142 176.164 14.1445 176.37C15.1748 176.576 16.121 177.082 16.8632 177.826C17.6054 178.57 18.1104 179.517 18.3141 180.548C18.5179 181.578 18.4113 182.646 18.0078 183.616C17.6044 184.586 16.9223 185.415 16.0477 185.997C15.1732 186.58 14.1456 186.889 13.0949 186.887C11.6884 186.885 10.3403 186.324 9.34665 185.329C8.35299 184.333 7.79492 182.984 7.79493 181.577ZM18.1849 201.447C17.1343 201.449 16.1067 201.14 15.2321 200.557C14.3576 199.975 13.6754 199.146 13.272 198.176C12.8686 197.206 12.762 196.138 12.9657 195.108C13.1695 194.077 13.6744 193.13 14.4167 192.386C15.1589 191.642 16.105 191.136 17.1353 190.93C18.1656 190.724 19.2338 190.829 20.2047 191.231C21.1755 191.632 22.0054 192.313 22.5893 193.186C23.1732 194.06 23.4849 195.087 23.4849 196.137C23.4849 197.544 22.9269 198.893 21.9332 199.889C20.9395 200.884 19.5915 201.445 18.1849 201.447ZM32.8549 192.837C26.0149 192.837 20.4449 184.277 20.4449 173.767C20.4449 163.257 26.0049 154.707 32.8549 154.707C39.7049 154.707 45.2749 163.257 45.2749 173.767C45.2749 184.277 39.7049 192.837 32.8549 192.837Z" fill="white"/>
<path d="M148.005 70.3773C142.235 72.6973 140.395 81.6773 143.905 90.3773C146.845 97.6873 152.625 102.517 157.815 102.517C158.808 102.521 159.792 102.334 160.715 101.967C163.595 100.807 165.575 98.0373 166.315 94.1573C166.957 90.0416 166.43 85.8283 164.795 81.9973C161.285 73.2573 153.755 68.0573 148.005 70.3773ZM164.345 93.7873C163.745 96.9673 162.185 99.2173 159.975 100.107C156.815 101.377 152.975 99.7073 149.785 96.1873C150.474 96.6601 151.264 96.9651 152.093 97.078C152.921 97.1908 153.764 97.1084 154.555 96.8373C157.905 95.4873 158.915 90.1673 156.815 84.9473C154.715 79.7273 150.295 76.5873 146.945 77.9473C146.256 78.2587 145.644 78.7173 145.151 79.291C144.659 79.8646 144.298 80.5392 144.095 81.2673C144.155 76.9373 145.785 73.4373 148.745 72.2673C149.457 71.9821 150.217 71.8361 150.985 71.8373C155.335 71.8373 160.335 76.2173 162.985 82.7373C164.459 86.2221 164.923 90.0512 164.325 93.7873H164.345ZM114.005 110.307C114.667 106.181 114.15 101.953 112.515 98.1073C112.012 96.8431 111.407 95.6223 110.705 94.4573C111.175 94.4573 111.655 94.3373 112.155 94.2673C112.42 94.2275 112.658 94.084 112.818 93.8684C112.977 93.6527 113.045 93.3825 113.005 93.1173C112.965 92.8521 112.821 92.6136 112.606 92.4542C112.39 92.2947 112.12 92.2275 111.855 92.2673C110.855 92.4273 109.855 92.5273 108.915 92.5973H108.845C108.515 92.5973 108.175 92.5973 107.845 92.6673H106.355C101.77 92.4904 97.2714 91.3633 93.1447 89.3573C89.5789 87.7835 86.1125 85.9935 82.7647 83.9973C82.6548 83.9124 82.5283 83.8513 82.3934 83.818C82.2585 83.7846 82.1182 83.7798 81.9813 83.8037C81.8444 83.8276 81.7141 83.8798 81.5985 83.9569C81.4829 84.034 81.3846 84.1344 81.31 84.2516C81.2354 84.3688 81.186 84.5002 81.165 84.6376C81.1439 84.7749 81.1518 84.9151 81.188 85.0493C81.2242 85.1834 81.2879 85.3085 81.3752 85.4167C81.4624 85.5248 81.5713 85.6136 81.6947 85.6773C84.7848 87.5707 87.9874 89.2738 91.2847 90.7773C89.2147 94.8473 89.2847 100.887 91.5847 106.557C94.5247 113.857 100.305 118.677 105.485 118.677C106.481 118.686 107.47 118.499 108.395 118.127C111.265 116.997 113.255 114.187 114.005 110.307ZM107.665 116.307C105.065 117.307 101.965 116.397 99.1947 114.057C99.9009 114.586 100.724 114.937 101.594 115.081C102.464 115.226 103.356 115.159 104.195 114.887C107.545 113.537 108.555 108.217 106.455 102.997C104.355 97.7773 99.9347 94.6373 96.5847 95.9973C93.2347 97.3573 92.2547 102.597 94.3047 107.787C93.9847 107.157 93.6747 106.517 93.4047 105.847C91.3147 100.657 91.2047 95.2073 93.0647 91.6473C96.6998 93.4418 100.658 94.4891 104.705 94.7273C105.667 94.7871 106.632 94.7871 107.595 94.7273H107.715C107.945 94.7273 108.185 94.7273 108.415 94.7273C109.296 96.0412 110.034 97.4459 110.615 98.9173C112.091 102.387 112.572 106.199 112.005 109.927C111.395 113.117 109.845 115.367 107.625 116.257L107.665 116.307ZM134.385 70.1173C134.475 69.7473 136.775 60.9973 144.385 57.8173C149.755 55.5873 156.305 56.7073 163.855 61.1573C164.072 61.2957 164.228 61.5128 164.29 61.7633C164.351 62.0138 164.313 62.2784 164.184 62.5017C164.055 62.725 163.845 62.8898 163.597 62.9616C163.349 63.0335 163.083 63.0069 162.855 62.8873C155.855 58.7773 149.945 57.6873 145.195 59.6573C138.495 62.4473 136.355 70.5273 136.335 70.6573C136.278 70.8773 136.148 71.0715 135.966 71.2078C135.785 71.3442 135.562 71.4145 135.335 71.4073C135.252 71.4171 135.168 71.4171 135.085 71.4073C134.943 71.3767 134.81 71.3158 134.695 71.2288C134.579 71.1418 134.484 71.0307 134.416 70.9034C134.347 70.776 134.307 70.6353 134.298 70.4909C134.29 70.3466 134.312 70.2021 134.365 70.0673L134.385 70.1173ZM117.105 124.497C117.385 124.657 122.465 127.357 127.395 127.357H127.575C128.915 128.997 134.505 135.357 140.085 135.357C140.682 135.36 141.278 135.283 141.855 135.127C146.115 133.987 148.935 128.657 150.255 119.317C153.115 117.537 154.575 114.017 154.575 108.837C154.575 108.572 154.469 108.318 154.282 108.13C154.094 107.943 153.84 107.837 153.575 107.837C153.31 107.837 153.055 107.943 152.868 108.13C152.68 108.318 152.575 108.572 152.575 108.837C152.575 113.357 151.405 116.337 149.095 117.697C145.275 119.947 139.245 117.497 136.975 116.417C138.189 114.718 138.993 112.76 139.325 110.697C139.525 109.467 139.725 107.237 138.695 106.167C137.515 104.927 133.835 105.627 130.925 106.797C129.465 107.377 126.075 108.947 126.075 110.797C126.075 112.647 128.515 115.097 130.925 116.567C131.994 117.278 133.218 117.72 134.495 117.857C134.205 121.047 133.155 123.237 131.315 124.357C126.585 127.237 118.145 122.737 118.055 122.687C117.939 122.624 117.811 122.585 117.68 122.572C117.548 122.558 117.416 122.571 117.289 122.609C117.163 122.647 117.045 122.71 116.943 122.794C116.841 122.877 116.757 122.981 116.695 123.097C116.625 123.215 116.581 123.346 116.564 123.482C116.547 123.617 116.558 123.755 116.597 123.886C116.635 124.017 116.7 124.139 116.787 124.244C116.875 124.35 116.983 124.436 117.105 124.497ZM132.345 126.117C134.695 124.687 136.055 122.117 136.455 118.397C139.216 119.731 142.221 120.486 145.285 120.617C146.234 120.62 147.179 120.496 148.095 120.247C146.865 127.877 144.545 132.347 141.345 133.247C137.165 134.377 132.175 129.547 129.985 127.117C130.819 126.91 131.615 126.572 132.345 126.117ZM299.005 483.597C296.435 480.007 292.335 478.097 286.835 477.927C270.345 477.407 262.015 467.447 259.605 463.977C264.095 463.097 267.555 463.177 269.795 464.297C273.195 465.997 275.195 465.177 276.275 464.197C279.515 461.197 278.845 452.277 274.555 441.387C268.795 426.697 223.725 347.937 213.555 334.707C204.555 323.057 205.285 294.817 205.455 290.367L205.885 290.167C209.145 288.297 209.525 284.457 209.735 282.397C211.065 268.897 215.495 210.397 213.275 194.247C212.501 189.454 211.207 184.76 209.415 180.247L224.025 175.657C225.232 175.15 226.32 174.398 227.22 173.447C228.12 172.497 228.813 171.37 229.255 170.137C230.365 166.797 230.085 162.657 228.955 158.377L231.575 157.157C243.345 151.707 254.465 146.557 257.365 144.937C258.221 145.571 259.178 146.058 260.195 146.377C261.411 146.768 262.719 146.768 263.935 146.377C263.968 147.798 264.413 149.179 265.216 150.352C266.018 151.525 267.143 152.441 268.455 152.987C269.457 153.414 270.536 153.632 271.625 153.627C274.035 153.627 276.775 152.567 279.495 149.957L279.925 150.377C280.608 151.033 281.413 151.547 282.295 151.89C283.177 152.233 284.118 152.399 285.065 152.377C287.835 152.316 290.475 151.187 292.435 149.227C294.895 146.757 296.335 142.447 292.385 138.437L288.385 134.017C294.495 115.017 285.175 103.557 280.385 99.2273C272.635 92.2273 261.485 89.1073 256.055 92.4873C255.855 92.6073 254.535 93.3673 252.685 94.5973L249.915 91.5373C251.105 88.6372 251.52 85.4775 251.119 82.3685C250.718 79.2596 249.516 76.3083 247.629 73.8046C245.743 71.301 243.238 69.3312 240.36 68.0886C237.482 66.846 234.33 66.3734 231.215 66.7173C226.7 67.3129 222.575 69.5905 219.667 73.0949C216.758 76.5993 215.279 81.0724 215.525 85.62C215.772 90.1676 217.725 94.4547 220.995 97.6244C224.266 100.794 228.612 102.613 233.165 102.717C233.515 102.717 233.855 102.717 234.165 102.717L238.875 107.657C237.783 109.417 237.256 111.469 237.365 113.537C237.735 117.247 240.855 120.207 246.625 122.347C246.248 123.148 245.937 123.977 245.695 124.827C244.385 126.737 238.815 130.757 217.935 138.117C215.465 135.367 212.125 132.477 209.005 132.477C205.155 132.477 204.645 132.647 203.105 133.377L202.265 133.767C200.265 134.637 189.495 140.597 186.735 142.127C183.748 138.626 180.28 135.566 176.435 133.037C184.69 127.541 192.133 120.913 198.545 113.347C211.005 98.4173 215.835 82.8773 211.845 70.7373C209.8 64.6777 205.644 59.5558 200.135 56.3073C197.065 52.2573 164.005 8.66733 156.285 0.917327C155.948 0.506147 155.49 0.212759 154.976 0.0797042C154.461 -0.053351 153.918 -0.0191575 153.425 0.177327C146.805 2.91733 143.135 44.6073 142.635 50.9973C134.036 52.5076 125.557 54.6364 117.265 57.3673C107.18 60.6465 97.462 64.9594 88.2647 70.2373C85.0047 67.9973 66.4247 55.5673 47.3447 41.9973C45.0647 40.3773 43.2647 40.0673 41.9947 40.9973C40.1047 42.4773 38.4947 47.3673 46.4447 72.7073C50.2947 85.0473 54.8047 96.9973 55.7247 99.3973C49.8347 108.897 48.0947 118.347 50.8847 126.857C55.3947 140.587 70.8847 149.697 90.9547 152.857L73.1447 155.997C71.8272 156.228 70.6136 156.861 69.6714 157.81C68.7292 158.76 68.1049 159.978 67.8847 161.297C67.7547 162.097 67.6047 163.007 67.4647 164.017L50.3347 162.697C49.0847 158.897 42.0947 140.487 23.6747 138.647C10.1447 137.287 6.53472 143.147 5.61472 145.727C5.05902 147.331 4.94309 149.054 5.27899 150.718C5.61488 152.382 6.39034 153.925 7.52472 155.187C5.34615 155.992 3.46201 157.437 2.11988 159.333C0.777741 161.228 0.0403946 163.485 0.00472054 165.807C-0.0525133 167.524 0.411821 169.218 1.33653 170.666C2.26123 172.114 3.60291 173.247 5.18472 173.917C1.63472 176.547 -0.415279 180.797 0.184721 184.727C0.754721 188.457 3.54472 191.157 7.94472 192.297C7.24983 193.48 6.86527 194.818 6.8268 196.189C6.78834 197.56 7.09722 198.918 7.72472 200.137C9.72472 203.987 14.2547 206.437 19.4847 206.437H19.8847C30.4247 206.177 49.4447 196.917 52.3747 186.627C56.1147 186.677 61.2447 187.107 66.2347 187.627C66.7747 200.457 69.9147 209.627 75.8447 215.747C76.7787 216.711 77.9551 217.405 79.2502 217.757C80.5454 218.109 81.9114 218.106 83.2047 217.747C98.2647 213.557 110.035 204.507 118.485 195.747C122.485 199.317 143.605 219.077 139.855 237.657C137.505 249.297 125.855 258.397 105.295 264.657C105.204 264.687 105.116 264.727 105.035 264.777C103.928 265.46 102.999 266.397 102.327 267.51C101.654 268.623 101.255 269.88 101.165 271.177C100.455 280.177 112.645 292.427 115.465 295.177C114.955 296.087 114.465 297.057 113.875 298.087C104.495 285.697 83.5547 274.407 60.2647 276.087C45.5547 277.087 18.9247 284.717 5.90472 323.787C-2.69528 349.547 3.71472 376.787 21.1247 388.527C26.4666 392.191 32.7974 394.141 39.2747 394.117C49.6747 394.117 60.8047 389.327 71.4747 380.247C72.6423 379.204 73.3558 377.746 73.463 376.184C73.5701 374.622 73.0625 373.08 72.0484 371.887C71.0343 370.694 69.5941 369.945 68.0352 369.799C66.4763 369.653 64.9222 370.123 63.7047 371.107C50.3047 382.497 37.5747 385.157 27.8447 378.587C15.0147 369.927 10.4747 347.997 17.2747 327.587C27.5447 296.687 46.7847 288.997 61.1047 287.997C81.0247 286.607 100.855 297.587 106.215 308.317C106.695 309.317 107.315 310.687 107.735 311.787C103.975 322.067 101.385 334.357 103.345 346.557C105.225 358.197 110.965 368.257 120.405 376.557C117.535 383.247 92.6547 440.007 74.6447 442.847C72.3847 443.207 71.1047 444.077 70.8247 445.437C70.4747 447.147 71.3647 450.277 83.1147 457.687C85.6947 459.317 88.7847 461.107 92.1947 462.957C91.9847 463.487 89.5947 469.807 86.9447 479.477C85.3047 485.477 85.9447 486.307 90.9447 488.787C104.435 494.267 128.635 502.357 137.755 505.407L141.085 506.517C142.053 507.057 143.137 507.358 144.245 507.397C144.635 507.401 145.024 507.34 145.395 507.217C145.671 507.14 145.927 507.005 146.146 506.82C146.365 506.636 146.542 506.406 146.665 506.147C146.815 505.827 147.005 505.447 147.215 505.027C149.375 500.747 153.745 492.087 145.745 483.137C146.216 483.052 146.663 482.864 147.055 482.587C154.295 477.097 167.715 439.067 169.055 424.747C177.476 437.256 184.097 450.886 188.725 465.237C188.945 465.917 189.095 466.387 189.185 466.627C189.275 466.867 189.485 467.577 189.675 468.307C191.065 473.387 194.565 486.307 205.935 486.307C206.88 486.308 207.823 486.227 208.755 486.067C210.419 485.771 212.046 485.292 213.605 484.637C215.217 483.978 216.778 483.199 218.275 482.307C221.235 480.581 224.105 478.961 226.885 477.447L228.645 500.677C228.645 500.917 229.115 506.677 239.595 506.677H299.595C299.817 506.687 300.035 506.622 300.216 506.494C300.397 506.365 300.531 506.18 300.595 505.967C300.715 505.337 304.765 491.697 299.005 483.597ZM290.895 139.817C294.625 143.577 291.895 146.897 290.995 147.817C288.405 150.417 283.895 151.487 281.285 148.937L280.845 148.507C282.524 146.501 283.948 144.294 285.085 141.937C286.027 140.062 286.865 138.136 287.595 136.167L290.895 139.817ZM223.105 97.2273C220.623 95.2414 218.786 92.5641 217.825 89.534C216.865 86.5038 216.825 83.257 217.71 80.2041C218.596 77.1512 220.366 74.4294 222.799 72.383C225.231 70.3365 228.215 69.0574 231.375 68.7073C231.975 68.6473 232.575 68.6073 233.175 68.6073C235.741 68.6126 238.268 69.2323 240.546 70.4145C242.823 71.5968 244.784 73.3073 246.265 75.4028C247.746 77.4984 248.704 79.9181 249.058 82.4596C249.412 85.0011 249.152 87.5905 248.301 90.011C247.449 92.4316 246.03 94.613 244.163 96.3728C242.295 98.1326 240.033 99.4196 237.566 100.126C235.1 100.833 232.499 100.938 229.983 100.434C227.467 99.9295 225.109 98.83 223.105 97.2273ZM236.595 102.407C239.172 101.902 241.608 100.842 243.734 99.2996C245.86 97.7574 247.625 95.7706 248.905 93.4773L250.905 95.7373C247.355 98.2373 242.755 101.917 239.905 105.927L236.595 102.407ZM239.325 113.407C238.775 107.817 247.105 100.817 253.115 96.7273C254.605 95.7273 255.955 94.8673 256.995 94.2773C261.145 91.6773 271.185 93.7173 278.995 100.777C283.995 105.367 294.575 118.497 283.275 141.117C278.365 150.927 272.605 152.687 269.185 151.217C267.954 150.716 266.959 149.766 266.402 148.56C265.845 147.353 265.767 145.979 266.185 144.717C266.239 144.566 266.257 144.404 266.236 144.245C266.214 144.086 266.155 143.934 266.063 143.803C265.971 143.672 265.848 143.564 265.706 143.49C265.563 143.416 265.405 143.377 265.245 143.377C265.107 143.379 264.971 143.409 264.845 143.466C264.72 143.523 264.607 143.605 264.515 143.707C264.029 144.195 263.413 144.531 262.741 144.677C262.068 144.822 261.368 144.77 260.725 144.527C259.469 144.143 258.332 143.444 257.422 142.498C256.512 141.551 255.859 140.387 255.525 139.117C255.397 138.423 255.47 137.707 255.736 137.053C256.002 136.399 256.449 135.835 257.025 135.427C257.139 135.355 257.246 135.271 257.345 135.177C257.52 135.002 257.623 134.768 257.635 134.52C257.647 134.273 257.567 134.03 257.411 133.838C257.254 133.646 257.031 133.52 256.786 133.483C256.541 133.445 256.291 133.501 256.085 133.637L255.855 133.807C254.855 134.367 251.915 134.207 249.625 132.407C248.649 131.632 247.934 130.576 247.576 129.381C247.219 128.187 247.236 126.912 247.625 125.727C247.709 125.576 247.782 125.419 247.845 125.257C247.914 125.093 247.934 124.913 247.905 124.737C248.193 123.912 248.551 123.112 248.975 122.347C249.047 122.219 249.089 122.076 249.1 121.929C249.11 121.782 249.088 121.635 249.035 121.497C248.981 121.362 248.899 121.24 248.794 121.14C248.688 121.04 248.562 120.964 248.425 120.917C242.665 118.997 239.635 116.437 239.325 113.357V113.407ZM245.325 128.067C245.372 129.207 245.665 130.323 246.183 131.339C246.7 132.356 247.431 133.249 248.325 133.957C249.94 135.203 251.89 135.937 253.925 136.067C253.43 137.121 253.279 138.303 253.495 139.447C253.823 141.003 254.578 142.437 255.675 143.587C252.035 145.487 241.175 150.517 230.675 155.397L228.325 156.487C226.592 151.244 224.073 146.295 220.855 141.807C220.455 141.257 219.935 140.567 219.315 139.807C235.445 133.997 242.295 130.317 245.295 127.997L245.325 128.067ZM203.005 135.607L203.885 135.197C205.125 134.607 205.385 134.487 208.935 134.487C211.495 134.487 215.415 137.727 219.175 142.927C224.925 150.927 229.535 162.597 227.235 169.497C226.888 170.441 226.355 171.304 225.668 172.038C224.981 172.771 224.153 173.359 223.235 173.767L208.555 178.377C203.494 165.84 196.566 154.141 188.005 143.677C191.265 141.897 201.245 136.397 203.005 135.607ZM154.195 1.99733C154.275 1.99733 154.465 1.88733 154.875 2.29733C161.425 8.84733 187.255 42.6373 195.875 53.9973C182.985 48.0673 164.325 47.3973 144.625 50.5873C145.175 42.8373 149.435 3.99733 154.195 1.99733ZM43.1947 42.6173C43.6647 42.2573 44.7447 42.6173 46.1947 43.6173C64.1047 56.3773 81.5247 68.0873 86.3647 71.3273C78.5856 75.9128 71.41 81.4524 65.0047 87.8173C62.0889 90.7443 59.4416 93.9271 57.0947 97.3273C48.8647 75.7573 39.4647 45.5773 43.2247 42.6473L43.1947 42.6173ZM52.7647 126.207C49.0747 114.977 53.9147 101.827 66.3747 89.2073C73.0357 82.5975 80.5286 76.8829 88.6647 72.2073L88.8147 72.1173C98.0022 66.8016 107.722 62.4645 117.815 59.1773C134.335 53.7573 151.695 50.5973 166.915 50.5973C179.495 50.5973 190.605 52.7573 198.555 57.5973L198.645 57.7273C198.729 57.8322 198.833 57.9191 198.952 57.9827C199.071 58.0462 199.201 58.0852 199.335 58.0973C204.291 61.1346 208.022 65.8176 209.875 71.3273C213.645 82.8073 208.875 97.6473 196.875 112.047C184.525 126.867 166.035 139.097 146.155 145.627C133.458 149.827 120.178 152.001 106.805 152.067C80.1847 152.097 58.1747 142.657 52.7947 126.237L52.7647 126.207ZM51.5447 184.587C51.3094 184.583 51.08 184.662 50.8971 184.81C50.7142 184.958 50.5894 185.166 50.5447 185.397C48.6947 194.677 29.7347 204.157 19.7847 204.397C15.2047 204.487 11.0747 202.397 9.44472 199.187C8.87481 198.066 8.65404 196.8 8.81091 195.552C8.96777 194.305 9.49507 193.132 10.3247 192.187C10.433 192.047 10.5022 191.881 10.525 191.705C10.5478 191.529 10.5236 191.351 10.4547 191.187C10.392 191.027 10.2891 190.886 10.156 190.778C10.0228 190.669 9.86399 190.597 9.69472 190.567C5.29472 189.827 2.59472 187.627 2.10472 184.357C1.54472 180.597 4.00472 176.427 7.97472 174.447C8.16303 174.355 8.3176 174.206 8.41658 174.021C8.51556 173.836 8.55395 173.625 8.52631 173.417C8.49868 173.21 8.40641 173.016 8.26257 172.863C8.11873 172.711 7.93058 172.607 7.72472 172.567C6.1094 172.335 4.63517 171.519 3.58107 170.273C2.52696 169.028 1.96613 167.439 2.00472 165.807C2.0426 163.613 2.83617 161.498 4.25159 159.82C5.66702 158.143 7.61771 157.004 9.77472 156.597C9.96873 156.56 10.1473 156.466 10.2879 156.327C10.4285 156.188 10.5248 156.011 10.5647 155.817C10.5973 155.627 10.574 155.431 10.4977 155.254C10.4214 155.076 10.2953 154.925 10.1347 154.817C8.85344 153.882 7.9057 152.56 7.43057 151.047C6.95543 149.533 6.97792 147.907 7.49472 146.407C9.11472 141.897 14.9347 139.797 23.4947 140.647C42.5647 142.547 48.5747 163.647 48.6347 163.917C48.6898 164.116 48.8048 164.293 48.9642 164.423C49.1235 164.554 49.3192 164.632 49.5247 164.647L76.9447 166.757C80.046 173.251 81.7494 180.324 81.9447 187.517C79.4847 187.177 73.7247 186.417 67.5347 185.767C67.4021 185.711 67.2589 185.683 67.1147 185.687H67.0047C61.4647 185.097 55.6247 184.617 51.5747 184.617L51.5447 184.587ZM103.115 271.307C103.181 270.338 103.476 269.398 103.975 268.563C104.473 267.729 105.162 267.025 105.985 266.507C127.235 259.977 139.285 250.387 141.775 237.997C145.635 218.867 125.675 199.477 120.325 194.677C129.595 192.397 149.325 209.617 156.555 216.837C156.648 216.931 156.758 217.005 156.88 217.056C157.002 217.107 157.133 217.133 157.265 217.133C157.397 217.133 157.527 217.107 157.649 217.056C157.771 217.005 157.882 216.931 157.975 216.837C158.161 216.65 158.266 216.397 158.266 216.132C158.266 215.868 158.161 215.615 157.975 215.427C156.925 214.367 134.165 191.697 121.375 192.527C126.429 186.888 130.815 180.684 134.445 174.037C134.553 173.801 134.565 173.532 134.479 173.287C134.392 173.042 134.214 172.84 133.981 172.725C133.749 172.609 133.48 172.588 133.232 172.667C132.985 172.746 132.778 172.918 132.655 173.147C132.485 173.477 115.565 206.627 82.6547 215.787C81.707 216.048 80.7066 216.049 79.7583 215.791C78.81 215.532 77.9487 215.023 77.2647 214.317C71.7447 208.647 68.7847 199.957 68.2647 187.797C74.3747 188.457 79.9347 189.197 82.0447 189.477C82.0245 197.57 80.6974 205.607 78.1147 213.277C78.0327 213.529 78.054 213.803 78.174 214.04C78.294 214.276 78.5029 214.455 78.7547 214.537C78.854 214.573 78.9592 214.59 79.0647 214.587C79.284 214.598 79.5008 214.536 79.6815 214.412C79.8623 214.287 79.9969 214.106 80.0647 213.897C82.7744 205.843 84.1262 197.395 84.0647 188.897C84.0647 188.847 84.0647 188.807 84.1147 188.747C84.1301 188.588 84.1096 188.428 84.0547 188.277C83.9343 180.394 82.0805 172.634 78.6247 165.547C78.5888 165.364 78.5022 165.194 78.3747 165.057C77.2794 162.862 75.9374 160.799 74.3747 158.907C74.2854 158.811 74.178 158.733 74.0585 158.678C73.9391 158.623 73.81 158.592 73.6786 158.587C73.5472 158.582 73.4161 158.602 73.2928 158.648C73.1694 158.694 73.0562 158.763 72.9597 158.852C72.8632 158.942 72.7852 159.049 72.7302 159.169C72.6752 159.288 72.6443 159.417 72.6392 159.548C72.6341 159.68 72.6549 159.811 72.7004 159.934C72.746 160.058 72.8154 160.171 72.9047 160.267C74.0452 161.612 75.0501 163.065 75.9047 164.607L69.5447 164.117C69.6847 163.177 69.8247 162.327 69.9447 161.577C70.1076 160.693 70.5335 159.878 71.1668 159.239C71.8002 158.6 72.6115 158.168 73.4947 157.997L95.4947 154.117C95.6487 154.086 95.7933 154.019 95.9166 153.922C96.04 153.825 96.1387 153.7 96.2047 153.557C99.8364 153.925 103.484 154.109 107.135 154.107C120.644 154.044 134.059 151.851 146.885 147.607C156.63 144.383 165.923 139.924 174.535 134.337C186.305 140.877 200.125 162.077 207.055 179.867C207.055 179.867 207.055 179.927 207.055 179.957C207.083 180.043 207.123 180.124 207.175 180.197C209.036 184.825 210.377 189.644 211.175 194.567C213.375 210.567 208.945 268.797 207.625 282.247C207.385 284.607 206.955 287.247 204.775 288.477L204.065 288.807H203.985C197.615 291.517 158.165 305.327 136.135 298.347C130.135 296.437 125.935 293.067 123.725 288.347C117.785 275.637 112.725 269.157 108.675 269.087H108.605C107.948 269.09 107.304 269.269 106.739 269.605C106.175 269.941 105.711 270.421 105.395 270.997C105.271 271.233 105.247 271.509 105.327 271.763C105.406 272.017 105.584 272.229 105.82 272.352C106.056 272.476 106.331 272.5 106.585 272.42C106.839 272.341 107.051 272.163 107.175 271.927C107.319 271.661 107.535 271.442 107.799 271.293C108.062 271.145 108.363 271.073 108.665 271.087C110.045 271.087 113.885 272.797 120.665 286.687C119.985 287.687 118.385 289.987 116.395 293.367C113.305 290.217 102.545 278.997 103.145 271.337L103.115 271.307ZM108.005 307.417C102.355 296.117 81.6647 284.537 61.0047 285.997C46.0747 287.057 26.0047 294.997 15.4147 326.887C8.33472 348.127 13.2147 371.037 26.7547 380.187C37.2947 387.297 50.8847 384.597 65.0247 372.567C65.4252 372.227 65.889 371.968 66.3894 371.806C66.8899 371.645 67.4173 371.583 67.9415 371.626C68.4656 371.668 68.9764 371.813 69.4445 372.053C69.9126 372.292 70.3289 372.622 70.6697 373.022C71.0105 373.423 71.2691 373.887 71.4306 374.387C71.5922 374.887 71.6536 375.415 71.6113 375.939C71.5691 376.463 71.424 376.974 71.1844 377.442C70.9447 377.91 70.6152 378.327 70.2147 378.667C59.9047 387.427 49.2147 392.057 39.3047 392.057C33.2365 392.074 27.3071 390.242 22.3047 386.807C5.55472 375.547 -0.52528 349.277 7.78472 324.357C20.4447 286.397 46.1847 278.997 60.3947 277.997C83.4647 276.377 104.115 287.777 112.845 299.997C111.475 302.707 110.075 305.737 108.775 308.997C108.515 308.477 108.245 307.897 108.005 307.417ZM145.385 504.127C145.155 504.567 144.955 504.967 144.825 505.267C144.695 505.567 143.615 505.607 141.915 504.717C141.785 504.657 141.415 504.537 138.335 503.507C129.235 500.507 105.075 492.387 91.7147 486.967C87.5447 484.867 87.5447 484.867 88.8747 479.967C91.2747 471.187 93.4647 465.207 93.9647 463.877C110.455 472.667 133.285 482.527 143.025 483.207C151.685 491.637 147.595 499.747 145.385 504.127ZM145.805 480.997C145.228 481.324 144.566 481.47 143.905 481.417C143.703 481.352 143.486 481.352 143.285 481.417C133.805 480.867 103.065 467.927 84.1847 456.027C72.5747 448.707 72.7247 446.137 72.7847 445.867C72.8747 445.437 73.6847 445.057 74.9547 444.867C93.7947 441.867 118.025 387.217 121.955 377.967C123.355 379.117 124.815 380.227 126.355 381.307C142.22 392.385 156.022 406.156 167.135 421.997C167.795 432.247 153.155 475.417 145.805 480.997ZM217.245 480.537C215.831 481.381 214.357 482.12 212.835 482.747C211.406 483.342 209.917 483.781 208.395 484.057C196.545 486.057 193.075 473.247 191.585 467.777C191.355 466.937 191.195 466.327 191.035 465.917C190.945 465.687 190.805 465.247 190.605 464.627C179.393 430.187 157.253 400.345 127.545 379.627C114.955 370.837 107.485 359.627 105.325 346.247C101.225 320.857 117.545 294.897 121.745 288.737L121.955 289.177C124.415 294.427 128.955 298.177 135.575 300.227C140.497 301.659 145.609 302.333 150.735 302.227C171.085 302.227 195.515 294.227 203.345 291.227C203.125 297.927 202.865 324.227 211.885 335.957C222.045 349.127 266.885 427.527 272.645 442.147C277.145 453.587 276.955 460.847 274.875 462.747C273.985 463.567 272.555 463.497 270.635 462.537C262.065 458.247 242.575 466.757 227.295 474.937C223.625 476.867 220.215 478.807 217.245 480.537ZM298.815 504.617H239.575C231.105 504.617 230.635 500.667 230.625 500.497L228.795 476.377C240.245 470.297 250.045 466.227 257.455 464.437C259.405 467.437 268.245 479.347 286.725 479.927C291.565 480.077 295.135 481.707 297.335 484.767C301.855 491.067 299.545 501.777 298.815 504.617ZM32.8647 154.707C26.0147 154.707 20.4447 163.257 20.4447 173.777C20.4447 184.297 26.0047 192.837 32.8647 192.837C39.7247 192.837 45.2747 184.287 45.2747 173.777C45.2747 163.267 39.7047 154.707 32.8647 154.707ZM32.8647 190.837C27.1147 190.837 22.4447 183.187 22.4447 173.777C22.4447 164.367 27.1147 156.707 32.8647 156.707C38.6147 156.707 43.2747 164.367 43.2747 173.777C43.2747 183.187 38.6047 190.837 32.8647 190.837ZM22.1047 154.837C23.1525 154.835 24.1762 154.523 25.0465 153.939C25.9168 153.356 26.5945 152.527 26.9941 151.559C27.3938 150.59 27.4973 149.525 27.2917 148.497C27.086 147.47 26.5805 146.526 25.8389 145.786C25.0972 145.046 24.1529 144.542 23.125 144.338C22.0972 144.135 21.0321 144.24 20.0642 144.642C19.0963 145.043 18.2692 145.722 17.6872 146.594C17.1053 147.465 16.7947 148.49 16.7947 149.537C16.7908 150.237 16.9252 150.931 17.1903 151.579C17.4554 152.226 17.8459 152.815 18.3393 153.311C18.8328 153.808 19.4195 154.202 20.0657 154.47C20.7119 154.739 21.4049 154.877 22.1047 154.877V154.837ZM22.1047 146.237C22.757 146.239 23.394 146.435 23.9354 146.798C24.4767 147.162 24.8981 147.678 25.1464 148.281C25.3946 148.885 25.4585 149.548 25.3301 150.187C25.2016 150.827 24.8865 151.414 24.4246 151.874C23.9627 152.335 23.3747 152.648 22.7348 152.775C22.095 152.901 21.432 152.835 20.8296 152.585C20.2272 152.335 19.7124 151.912 19.3502 151.37C18.988 150.827 18.7947 150.19 18.7947 149.537C18.8053 148.667 19.159 147.837 19.7789 147.226C20.3987 146.616 21.2347 146.275 22.1047 146.277V146.237ZM12.6747 170.147C13.7249 170.147 14.7516 169.836 15.6248 169.252C16.498 168.669 17.1786 167.84 17.5805 166.869C17.9824 165.899 18.0876 164.831 17.8827 163.801C17.6778 162.771 17.1721 161.825 16.4295 161.083C15.6868 160.34 14.7407 159.834 13.7107 159.629C12.6806 159.424 11.6129 159.53 10.6427 159.932C9.6724 160.333 8.84309 161.014 8.25962 161.887C7.67615 162.76 7.36472 163.787 7.36472 164.837C7.35944 165.538 7.49289 166.233 7.75738 166.882C8.02187 167.531 8.41216 168.121 8.90577 168.618C9.39938 169.115 9.98653 169.51 10.6334 169.779C11.2803 170.049 11.974 170.187 12.6747 170.187V170.147ZM12.6747 161.537C13.3298 161.537 13.9702 161.732 14.5147 162.096C15.0592 162.46 15.4835 162.978 15.7337 163.583C15.9839 164.188 16.0489 164.854 15.9204 165.497C15.7918 166.139 15.4756 166.729 15.0117 167.191C14.5478 167.654 13.9571 167.968 13.3143 168.095C12.6716 168.222 12.0057 168.155 11.4011 167.902C10.7964 167.65 10.2802 167.225 9.91769 166.679C9.55519 166.133 9.36274 165.492 9.36472 164.837C9.37526 163.967 9.72896 163.137 10.3489 162.526C10.9687 161.916 11.8047 161.575 12.6747 161.577V161.537ZM18.4047 181.537C18.4047 180.487 18.093 179.46 17.5091 178.586C16.9252 177.713 16.0953 177.032 15.1245 176.631C14.1536 176.229 13.0854 176.124 12.0551 176.33C11.0248 176.536 10.0787 177.043 9.33645 177.786C8.59423 178.53 8.08929 179.477 7.88553 180.508C7.68178 181.538 7.78836 182.606 8.1918 183.576C8.59523 184.546 9.27738 185.375 10.1519 185.957C11.0265 186.54 12.0541 186.849 13.1047 186.847C14.5044 186.845 15.8464 186.29 16.8389 185.303C17.8315 184.316 18.3942 182.977 18.4047 181.577V181.537ZM9.79472 181.537C9.79472 180.883 9.98885 180.243 10.3526 179.698C10.7163 179.154 11.2332 178.73 11.838 178.479C12.4429 178.229 13.1084 178.163 13.7505 178.291C14.3925 178.419 14.9823 178.734 15.4452 179.197C15.9082 179.66 16.2234 180.25 16.3511 180.892C16.4788 181.534 16.4133 182.199 16.1628 182.804C15.9122 183.409 15.488 183.926 14.9437 184.289C14.3993 184.653 13.7594 184.847 13.1047 184.847C12.2337 184.847 11.3978 184.504 10.7782 183.892C10.1586 183.28 9.80525 182.448 9.79472 181.577V181.537ZM18.1847 190.797C17.1345 190.797 16.1079 191.109 15.2346 191.692C14.3614 192.276 13.6808 193.105 13.2789 194.075C12.877 195.046 12.7719 196.113 12.9768 197.143C13.1816 198.173 13.6874 199.119 14.43 199.862C15.1726 200.605 16.1188 201.11 17.1488 201.315C18.1788 201.52 19.2465 201.415 20.2168 201.013C21.187 200.611 22.0164 199.931 22.5998 199.057C23.1833 198.184 23.4947 197.158 23.4947 196.107C23.4842 194.706 22.9201 193.366 21.9254 192.378C20.9307 191.391 19.5861 190.837 18.1847 190.837V190.797ZM18.1847 199.407C17.5296 199.407 16.8893 199.213 16.3447 198.849C15.8002 198.485 15.376 197.967 15.1257 197.362C14.8755 196.756 14.8105 196.09 14.9391 195.448C15.0676 194.806 15.3838 194.216 15.8478 193.753C16.3117 193.291 16.9024 192.976 17.5451 192.85C18.1879 192.723 18.8537 192.79 19.4583 193.042C20.063 193.294 20.5793 193.72 20.9418 194.266C21.3043 194.811 21.4967 195.452 21.4947 196.107C21.5 196.545 21.4183 196.979 21.2542 197.385C21.0901 197.79 20.8469 198.159 20.5389 198.47C20.2309 198.781 19.8641 199.028 19.46 199.195C19.0558 199.363 18.6223 199.449 18.1847 199.447V199.407Z" fill="black"/>
</svg>
