<svg width="328" height="104" viewBox="0 0 328 104" fill="none" xmlns="http://www.w3.org/2000/svg">
<path d="M252.145 78.9074H266.251C266.251 86.0767 257.567 104 232.749 104C232.67 98.623 232.749 93.246 232.749 88.0931C245.092 93.2012 253.908 84.2396 252.145 78.9074ZM327.965 88.0483C315.622 93.2012 306.806 84.2396 308.569 78.9074H294.463C294.463 86.0767 303.147 104 327.965 104C328.044 98.5782 327.965 93.2012 327.965 88.0483ZM119.901 8.96165V21.508C153.244 21.508 156.929 10.754 156.929 0H146.35C151.64 17.9233 125.191 10.754 119.901 8.96165ZM232.749 28.6773C232.749 24.7969 232.652 21.508 232.652 14.3386C243.329 16.131 255.671 12.5463 250.487 0H260.961C260.961 1.83714 261.111 3.88936 261.19 6.01327C267.662 3.50401 276.346 2.76019 278.594 10.754C281.653 21.6245 276.592 33.6689 267.617 43.0159H295.177C285.559 30.5144 282.006 13.4425 282.12 1.79233H327.965V14.3386C328.009 22.6819 320.541 34.2694 308.957 39.037C314.247 43.5984 320.771 46.6006 327.965 46.6006V59.1469C320.688 59.2645 313.512 57.4084 307.176 53.7699H253.256C246.932 57.1781 239.906 59.0204 232.749 59.1469V41.2236C252.145 44.8083 278.594 30.4696 269.777 17.9233C267.177 14.2221 262.125 17.5021 258.131 20.3967C254.64 25.2091 247.419 28.6773 232.749 28.6773ZM294.913 14.3386C295.817 19.5287 297.706 24.4901 300.476 28.9461C307.529 28.8655 316.997 22.3145 313.859 14.3386H294.913ZM146.35 25.0926C151.64 43.0159 125.191 37.6389 119.901 34.0543V50.1853C133.17 50.1853 141.695 48.9127 147.161 46.4751C150.476 65.5545 148.924 93.4073 119.901 86.0319V103.955C154.655 103.955 155.166 103.955 155.166 38.7143C156.727 35.0042 156.929 30.4338 156.929 25.0657L146.35 25.0926ZM142.823 50.1853H135.77C137.534 60.9393 125.191 59.1469 119.901 55.5623V66.3162C130.481 66.3162 142.823 62.7316 142.823 50.1853ZM144.587 64.5239H137.534C139.297 75.2779 125.191 73.4856 119.901 69.9009V84.2395C130.481 84.2395 144.587 77.0702 144.587 64.5239ZM63.3095 10.754H105.795V23.3003H68.6963C68.5609 27.2071 68.1603 31.0998 67.4973 34.9505C83.6663 27.1807 100.505 30.389 100.505 41.2236C100.505 52.4974 90.6928 68.0369 77.7065 80.8341C86.5227 85.4852 96.6438 88.4426 105.795 87.8242V103.955C92.3591 103.955 78.738 97.682 68.0174 89.3477C57.0324 98.0046 45.0687 103.955 35.265 103.955V86.0319C41.2072 87.1252 49.371 84.3381 57.6583 79.5795C54.1093 75.6449 51.2175 71.1464 49.0977 66.2625C44.8815 68.6899 40.1104 69.9449 35.265 69.9009V51.9776C59.5274 55.0604 60.312 32.9699 57.7817 23.3003H38.6857C38.3045 32.2419 35.9289 40.9785 31.7385 48.85V103.955H17.6325V64.5239C12.4045 68.0002 6.29998 69.8673 0.0528975 69.9009V51.9776C24.1918 53.51 30.2221 32.6742 27.013 23.3003H0V10.754H55.6658C55.5424 7.35752 50.4731 4.82137 42.318 8.96165V0C57.8523 0 62.4367 4.17613 63.3095 10.754ZM63.477 48.85C61.7394 53.0533 59.3294 56.9354 56.3447 60.3388C57.8875 64.7211 61.7138 69.3722 66.7743 73.5841C81.9912 62.3104 94.6072 46.6006 89.9258 39.4313C86.655 34.4396 77.9974 36.2499 63.477 48.85ZM220.406 59.1469V103.955H208.064V98.5782H171.035V103.955H158.693V39.4313H160.456C222.17 37.6389 220.406 44.8083 220.406 59.1469ZM171.035 49.5579V67.8308C175.678 67.0954 179.986 64.9276 183.377 61.6207C186.767 58.3139 189.076 54.0278 189.99 49.3429C185.141 49.1368 178.899 49.1816 171.035 49.5579ZM171.035 84.8848H189.549C188.329 80.6277 185.938 76.8131 182.659 73.8891C179.379 70.965 175.347 69.053 171.035 68.3774V84.8848ZM208.064 84.8848V68.7538C204.118 69.697 200.488 71.6868 197.546 74.5206C194.603 77.3543 192.452 80.9306 191.313 84.8848H208.064ZM208.064 59.1469C208.064 55.2128 209.95 50.3107 190.872 49.3787C191.734 53.7505 193.812 57.7792 196.859 60.9863C199.907 64.1935 203.795 66.4446 208.064 67.4723V59.1469ZM168.197 34.5651H180.945V23.3003H197.14V34.5651H209.897V23.3003H220.406V10.754H209.897V0H197.14V10.754H180.945V0H168.197V10.754H158.693V23.3003H168.197V34.5651ZM327.965 73.4856V60.9393H232.749V73.4856H273.304V103.955H287.41V73.4856H327.965ZM76.7014 60.9393C77.922 60.9393 79.1152 60.5713 80.1301 59.882C81.1449 59.1927 81.9359 58.213 82.403 57.0667C82.8701 55.9205 82.9923 54.6591 82.7542 53.4423C82.5161 52.2254 81.9283 51.1076 81.0652 50.2303C80.2022 49.353 79.1025 48.7555 77.9054 48.5135C76.7083 48.2714 75.4674 48.3956 74.3397 48.8704C73.2121 49.3452 72.2482 50.1493 71.5701 51.1809C70.892 52.2125 70.53 53.4254 70.53 54.6661C70.53 56.3298 71.1802 57.9254 72.3376 59.1019C73.495 60.2783 75.0647 60.9393 76.7014 60.9393ZM146.35 29.5735C146.35 28.3327 145.988 27.1199 145.31 26.0883C144.632 25.0567 143.668 24.2526 142.54 23.7778C141.412 23.303 140.172 23.1788 138.974 23.4208C137.777 23.6629 136.678 24.2603 135.815 25.1377C134.952 26.015 134.364 27.1328 134.126 28.3496C133.888 29.5665 134.01 30.8278 134.477 31.9741C134.944 33.1204 135.735 34.1001 136.75 34.7894C137.765 35.4787 138.958 35.8466 140.178 35.8466C141.815 35.8466 143.385 35.1857 144.542 34.0093C145.7 32.8328 146.35 31.2372 146.35 29.5735ZM238.921 41.2236C240.141 41.2236 241.334 40.8557 242.349 40.1664C243.364 39.4771 244.155 38.4974 244.622 37.3511C245.089 36.2048 245.211 34.9435 244.973 33.7266C244.735 32.5097 244.147 31.392 243.284 30.5147C242.421 29.6373 241.322 29.0399 240.125 28.7978C238.927 28.5558 237.687 28.68 236.559 29.1548C235.431 29.6296 234.467 30.4337 233.789 31.4653C233.111 32.4969 232.749 33.7097 232.749 34.9505C232.749 36.6142 233.399 38.2098 234.557 39.3862C235.714 40.5627 237.284 41.2236 238.921 41.2236Z" fill="#D9D9D9"/>
</svg>
