<svg width="100" height="100" viewBox="0 0 100 100" fill="none" xmlns="http://www.w3.org/2000/svg">
<g clip-path="url(#clip0_124_173)">
<path d="M50 100C40.1109 100 30.444 97.0676 22.2215 91.5735C13.9991 86.0794 7.59043 78.2705 3.80604 69.1342C0.0216641 59.9979 -0.968502 49.9445 0.960758 40.2455C2.89002 30.5464 7.65206 21.6373 14.6447 14.6447C21.6373 7.65206 30.5464 2.89002 40.2455 0.960758C49.9445 -0.968502 59.9979 0.0216641 69.1342 3.80604C78.2705 7.59043 86.0794 13.9991 91.5735 22.2215C97.0676 30.444 100 40.1109 100 50C99.9841 63.256 94.7112 75.9644 85.3378 85.3378C75.9644 94.7112 63.256 99.9841 50 100ZM50 4.00002C40.9021 4.00002 32.0084 6.69787 24.4438 11.7524C16.8791 16.807 10.9832 23.9912 7.50156 32.3966C4.01993 40.802 3.10898 50.051 4.8839 58.9742C6.65882 67.8973 11.0399 76.0937 17.4731 82.5269C23.9063 88.9601 32.1027 93.3412 41.0259 95.1161C49.949 96.891 59.198 95.9801 67.6034 92.4985C76.0088 89.0168 83.1931 83.1209 88.2476 75.5562C93.3021 67.9916 96 59.0979 96 50C95.9841 37.8049 91.1326 26.1139 82.5094 17.4906C73.8861 8.86741 62.1951 4.0159 50 4.00002Z" fill="#D9D9D9"/>
<path d="M49.42 65.36C48.48 70.6933 46.6267 74.7967 43.86 77.67C42.5171 79.0842 40.892 80.2005 39.0901 80.9464C37.2881 81.6923 35.3496 82.0513 33.4 82C31.8754 82.0149 30.3684 81.6725 29 81L30.06 75C31.2327 75.8301 32.624 76.2961 34.06 76.34C38.3133 76.34 41.03 72.9633 42.21 66.21L48 33.42H55L49.42 65.36ZM49.35 22.06C49.5417 20.9099 50.1549 19.8725 51.07 19.15C51.988 18.389 53.1477 17.9812 54.34 18C54.8731 17.9727 55.4058 18.0614 55.9013 18.2599C56.3967 18.4585 56.8433 18.7621 57.21 19.15C57.5677 19.5347 57.8265 20.0006 57.9642 20.5075C58.1018 21.0145 58.1141 21.5473 58 22.06C57.8008 23.2402 57.1475 24.2955 56.18 25C55.2517 25.7497 54.0932 26.1559 52.9 26.15C52.3709 26.1811 51.8416 26.0941 51.3504 25.8952C50.8591 25.6963 50.4183 25.3905 50.06 25C49.7151 24.6025 49.4707 24.128 49.3471 23.6164C49.2236 23.1049 49.2246 22.5711 49.35 22.06Z" fill="#D9D9D9"/>
<path d="M68 46.05L65.1 62.44C64.92 63.4733 65.15 64.14 65.79 64.44C66.5821 64.7022 67.4177 64.8075 68.25 64.75L68 66H58.29L58.51 64.76C59.3319 64.8048 60.1545 64.6859 60.93 64.41C61.3136 64.2235 61.6429 63.9417 61.8863 63.5915C62.1297 63.2413 62.279 62.8345 62.32 62.41L64.47 50.23C64.5214 50.0777 64.5419 49.9167 64.5304 49.7564C64.5189 49.5961 64.4756 49.4398 64.403 49.2964C64.3304 49.153 64.2299 49.0256 64.1075 48.9215C63.9851 48.8173 63.8432 48.7386 63.69 48.69C63.0325 48.5547 62.3607 48.5009 61.69 48.53L61.92 47.26C64.0007 47.2044 66.0567 46.7952 68 46.05ZM68.3 36.46C69.64 36.46 70.19 37.13 69.96 38.46C69.8649 39.0235 69.5659 39.5324 69.12 39.89C68.7029 40.2828 68.153 40.5042 67.58 40.51C67.3262 40.522 67.0732 40.4718 66.8431 40.3637C66.6131 40.2556 66.4129 40.093 66.26 39.89C66.1015 39.6916 65.9903 39.4597 65.9348 39.2119C65.8794 38.9641 65.8812 38.707 65.94 38.46C66.0266 37.8897 66.3182 37.3706 66.76 37C67.1846 36.6351 67.7305 36.4424 68.29 36.46H68.3Z" fill="#D9D9D9"/>
</g>
<defs>
<clipPath id="clip0_124_173">
<rect width="100" height="100" fill="white"/>
</clipPath>
</defs>
</svg>
